<svg xmlns="http://www.w3.org/2000/svg" width="152.287" height="152.287" viewBox="0 0 152.287 152.287"><defs><style>.a{fill:#08a522;}.b{fill:#fff;}.c{fill:#64cb68;}</style></defs><path class="a" d="M328.76,93.8c0,.959-.025,1.889-.075,2.82a81.162,81.162,0,0,1-2.233,16.921c-.452,1.918-.979,3.807-1.556,5.64a78.878,78.878,0,0,1-7.552,16.921c-1.154,1.946-2.408,3.836-3.713,5.64-12.847,17.851-32.186,28.217-52.613,28.2a49.515,49.515,0,0,1-5.018-.226V17.881a49.424,49.424,0,0,1,5.018-.226c20.427-.016,39.766,10.35,52.613,28.2q1.982,2.713,3.713,5.64A78.871,78.871,0,0,1,324.9,68.417c.577,1.833,1.1,3.722,1.556,5.64a81.162,81.162,0,0,1,2.233,16.921C328.735,91.909,328.76,92.84,328.76,93.8Z" transform="translate(-176.473 -17.655)"/><g transform="translate(113.548 33.49)"><path class="b" d="M405.8,110.948h-23.71a2.509,2.509,0,0,1,0-5.018h20A61.732,61.732,0,0,1,405.8,110.948Z" transform="translate(-378.481 -105.93)"/><path class="b" d="M405.8,388.413c-1.154,1.731-2.409,3.412-3.713,5.018h-20a2.509,2.509,0,0,1,0-5.018H405.8Z" transform="translate(-378.481 -308.126)"/><path class="b" d="M412.133,181.569H378.211a2.509,2.509,0,1,1,0-5.018h32.366C411.154,178.182,411.681,179.863,412.133,181.569Z" transform="translate(-375.702 -156.479)"/><path class="b" d="M454.816,249.681c0,.853-.025,1.681-.075,2.509H434.619a2.509,2.509,0,1,1,0-5.018h20.122C454.791,248,454.816,248.828,454.816,249.681Z" transform="translate(-416.078 -207.028)"/><path class="b" d="M412.133,317.792c-.452,1.706-.979,3.387-1.556,5.018H378.211a2.509,2.509,0,0,1,0-5.018h33.921Z" transform="translate(-375.702 -257.576)"/></g><ellipse class="c" cx="71.126" cy="76.143" rx="71.126" ry="76.143" transform="translate(0 0)"/><path class="b" d="M118.292,200.419c-26.328,0-47.671-25.1-47.671-56.071s21.343-56.071,47.671-56.071,47.671,25.1,47.671,56.071C165.932,175.3,144.607,200.384,118.292,200.419Z" transform="translate(-50.549 -68.204)"/><g transform="translate(7.527 7.512)"><path class="a" d="M232.026,49.118a2.642,2.642,0,0,1-1.781-.728,2.588,2.588,0,0,1-.728-1.781,2.505,2.505,0,0,1,.2-.954,2.893,2.893,0,0,1,.528-.827,2.509,2.509,0,0,1,4.29,1.781,3.8,3.8,0,0,1-.05.5,1.641,1.641,0,0,1-.151.452,1.915,1.915,0,0,1-.227.452l-.3.376A2.641,2.641,0,0,1,232.026,49.118Z" transform="translate(-168.427 -44.085)"/><path class="a" d="M232.026,455.187a2.642,2.642,0,0,1-1.781-.728,2.588,2.588,0,0,1-.728-1.781,2.505,2.505,0,0,1,.2-.954,2.894,2.894,0,0,1,.528-.827,2.509,2.509,0,0,1,4.29,1.781,3.8,3.8,0,0,1-.05.5,1.64,1.64,0,0,1-.151.452,1.914,1.914,0,0,1-.227.452l-.3.376A2.64,2.64,0,0,1,232.026,455.187Z" transform="translate(-168.427 -317.94)"/><path class="a" d="M179.5,56.089a2.709,2.709,0,0,1-.979-.175,2.569,2.569,0,0,1-.8-.553,2.514,2.514,0,0,1,0-3.538,2.2,2.2,0,0,1,.8-.551,2.554,2.554,0,0,1,2.736.551,2.456,2.456,0,0,1,0,3.538A2.427,2.427,0,0,1,179.5,56.089Z" transform="translate(-131.706 -49.099)"/><path class="a" d="M284.547,448.415a2.609,2.609,0,0,1-1.782-.752,2.514,2.514,0,0,1,0-3.538,2.626,2.626,0,0,1,3.562,0,1.4,1.4,0,0,1,.3.376,4.033,4.033,0,0,1,.251.426,3.258,3.258,0,0,1,.125.478,1.7,1.7,0,0,1,.05.5,2.427,2.427,0,0,1-.728,1.757,2.078,2.078,0,0,1-.828.551A2.474,2.474,0,0,1,284.547,448.415Z" transform="translate(-205.145 -313.126)"/><path class="a" d="M130.509,76.34a2.466,2.466,0,0,1-.954-.175,3.177,3.177,0,0,1-.827-.551,3.809,3.809,0,0,1-.3-.377,1.9,1.9,0,0,1-.227-.451,1.6,1.6,0,0,1-.15-.452,3.31,3.31,0,0,1-.05-.5,2.5,2.5,0,0,1,.2-.953,2.268,2.268,0,0,1,1.355-1.355,2.407,2.407,0,0,1,1.456-.151,1.641,1.641,0,0,1,.452.151,1.914,1.914,0,0,1,.452.227l.376.3a2.92,2.92,0,0,1,.527.828,2.1,2.1,0,0,1,.2.953,3.458,3.458,0,0,1-.05.5,1.642,1.642,0,0,1-.151.452,1.9,1.9,0,0,1-.227.451c-.1.126-.2.251-.3.377a4.19,4.19,0,0,1-.376.3,3.963,3.963,0,0,1-.452.251,3.112,3.112,0,0,1-.452.126A1.734,1.734,0,0,1,130.509,76.34Z" transform="translate(-97.455 -63.58)"/><path class="a" d="M333.544,428.045a2.485,2.485,0,0,1-2.309-3.462,2.33,2.33,0,0,1,.528-.828,2.5,2.5,0,0,1,2.734-.527,2.868,2.868,0,0,1,.828.527,2.544,2.544,0,0,1,0,3.562,2.9,2.9,0,0,1-.828.527A2.511,2.511,0,0,1,333.544,428.045Z" transform="translate(-239.4 -298.525)"/><path class="a" d="M88.482,108.59a2.507,2.507,0,0,1-1.782-.752,1.642,1.642,0,0,1-.326-.376c-.076-.126-.151-.277-.225-.427a2.653,2.653,0,0,1-.126-.477,1.548,1.548,0,0,1-.05-.477,2.678,2.678,0,0,1,.176-.979,2.489,2.489,0,0,1,4.089-.8,2.183,2.183,0,0,1,.551.8,2.721,2.721,0,0,1,.2.979,2.984,2.984,0,0,1-.05.477c-.05.177-.1.327-.151.477-.075.151-.151.3-.225.427a1.636,1.636,0,0,1-.326.376,2.188,2.188,0,0,1-.8.551A2.477,2.477,0,0,1,88.482,108.59Z" transform="translate(-69.062 -86.648)"/><path class="a" d="M375.561,395.778a2.486,2.486,0,0,1-.953-.175,2.538,2.538,0,0,1-.8-.553,2.458,2.458,0,0,1-.753-1.781,2.5,2.5,0,0,1,.2-.953,2.686,2.686,0,0,1,1.355-1.355,2.559,2.559,0,0,1,2.734.553,2.425,2.425,0,0,1,.728,1.756,2.484,2.484,0,0,1-.728,1.782A2.442,2.442,0,0,1,375.561,395.778Z" transform="translate(-267.783 -275.441)"/><path class="a" d="M56.178,150.653a2.5,2.5,0,0,1-.953-.2,2.92,2.92,0,0,1-.828-.527l-.3-.376a1.9,1.9,0,0,1-.227-.452,1.635,1.635,0,0,1-.151-.452,3.531,3.531,0,0,1-.05-.5,2.642,2.642,0,0,1,.728-1.781,2.9,2.9,0,0,1,.828-.528,2.3,2.3,0,0,1,1.907,0,2.358,2.358,0,0,1,.828.528,2.639,2.639,0,0,1,.726,1.781,2.594,2.594,0,0,1-.726,1.782,2.368,2.368,0,0,1-.828.527A2.5,2.5,0,0,1,56.178,150.653Z" transform="translate(-45.942 -112.566)"/><path class="a" d="M407.992,353.829a2.485,2.485,0,1,1,1.781-.727A2.643,2.643,0,0,1,407.992,353.829Z" transform="translate(-291.032 -249.633)"/><path class="a" d="M35.94,199.663a2.452,2.452,0,0,1-1.757-.752,2.426,2.426,0,0,1-.726-1.757,2.709,2.709,0,0,1,.175-.979,2.2,2.2,0,0,1,.551-.8,1.127,1.127,0,0,1,.377-.3,2.389,2.389,0,0,1,.426-.251,2.626,2.626,0,0,1,.477-.125,2.486,2.486,0,0,1,2.985,2.459,1.541,1.541,0,0,1-.05.477,2.581,2.581,0,0,1-.125.477c-.076.151-.151.3-.227.426a1.592,1.592,0,0,1-.326.377A2.508,2.508,0,0,1,35.94,199.663Z" transform="translate(-31.474 -145.623)"/><path class="a" d="M428.173,304.807a2.485,2.485,0,0,1-2.509-2.509,2.425,2.425,0,0,1,.728-1.756,2.544,2.544,0,0,1,3.538,0,2.447,2.447,0,0,1,.752,1.756,2.508,2.508,0,0,1-.752,1.781A2.428,2.428,0,0,1,428.173,304.807Z" transform="translate(-305.442 -216.563)"/><path class="a" d="M28.991,252.221a2.51,2.51,0,0,1-.954-.2,2.92,2.92,0,0,1-.827-.527,2.6,2.6,0,0,1-.528-.828,2.377,2.377,0,0,1,0-1.907,2.278,2.278,0,0,1,1.355-1.355,2.521,2.521,0,0,1,1.907,0,2.269,2.269,0,0,1,1.355,1.355,2.363,2.363,0,0,1,0,1.907,2.623,2.623,0,0,1-.527.828,2.92,2.92,0,0,1-.828.527A2.513,2.513,0,0,1,28.991,252.221Z" transform="translate(-26.481 -181.079)"/><path class="a" d="M435.181,252.312a2.485,2.485,0,1,1,1.781-.727A2.641,2.641,0,0,1,435.181,252.312Z" transform="translate(-310.493 -181.167)"/><path class="a" d="M35.94,304.729a2.482,2.482,0,0,1-2.483-2.509,2.527,2.527,0,0,1,.726-1.781,2.466,2.466,0,0,1,.377-.3,2.307,2.307,0,0,1,.426-.225,2.711,2.711,0,0,1,.477-.151,2.574,2.574,0,0,1,2.258.677,2.53,2.53,0,0,1,.326.4c.076.125.151.276.227.426a2.626,2.626,0,0,1,.125.477,1.549,1.549,0,0,1,.05.477,2.485,2.485,0,0,1-2.509,2.509Z" transform="translate(-31.474 -216.487)"/><path class="a" d="M428.172,199.743a2.507,2.507,0,0,1-1.781-.752,2.427,2.427,0,0,1-.728-1.757,2.484,2.484,0,0,1,.728-1.782,2.6,2.6,0,0,1,3.538,0,2.507,2.507,0,0,1,.752,1.782,2.57,2.57,0,0,1-2.509,2.509Z" transform="translate(-305.441 -145.7)"/><path class="a" d="M56.177,353.739a2.5,2.5,0,0,1-.953-.2,2.921,2.921,0,0,1-.828-.527,2.544,2.544,0,0,1,0-3.562,2.9,2.9,0,0,1,.828-.528,2.521,2.521,0,0,1,1.907,0,2.355,2.355,0,0,1,.828.528,2.547,2.547,0,0,1,0,3.562,2.369,2.369,0,0,1-.828.527A2.51,2.51,0,0,1,56.177,353.739Z" transform="translate(-45.941 -249.543)"/><path class="a" d="M407.992,150.794a2.485,2.485,0,1,1,1.781-.727A2.64,2.64,0,0,1,407.992,150.794Z" transform="translate(-291.032 -112.7)"/><path class="a" d="M88.486,395.723a1.7,1.7,0,0,1-.5-.05,3.252,3.252,0,0,1-.478-.125c-.15-.076-.276-.151-.426-.227a2.27,2.27,0,0,1-.376-.326,2.537,2.537,0,0,1-.551-.8,2.678,2.678,0,0,1-.176-.979,2.458,2.458,0,0,1,.176-.953,2.533,2.533,0,0,1,.551-.8,2.342,2.342,0,0,1,.376-.327c.151-.075.277-.151.426-.225.151-.05.327-.1.478-.151a2.394,2.394,0,0,1,1.454.151,2.674,2.674,0,0,1,1.355,1.355,2.482,2.482,0,0,1,.2.953,2.614,2.614,0,0,1-.2.979,2.174,2.174,0,0,1-.551.8,2.56,2.56,0,0,1-.8.553A2.472,2.472,0,0,1,88.486,395.723Z" transform="translate(-69.067 -275.386)"/><path class="a" d="M375.561,108.6a2.482,2.482,0,0,1-.953-.2,2.673,2.673,0,0,1-1.355-1.355,2.5,2.5,0,0,1-.2-.953,2.509,2.509,0,1,1,5.018,0,2.427,2.427,0,0,1-.728,1.757A2.464,2.464,0,0,1,375.561,108.6Z" transform="translate(-267.783 -86.656)"/><path class="a" d="M130.51,428.031a2.509,2.509,0,0,1-.954-.2,2.571,2.571,0,0,1-.827-.527,2.386,2.386,0,0,1-.3-.4,1.39,1.39,0,0,1-.227-.426,1.513,1.513,0,0,1-.15-.477,2.981,2.981,0,0,1-.05-.477,2.636,2.636,0,0,1,.728-1.781,2.861,2.861,0,0,1,.827-.527,2.4,2.4,0,0,1,1.455-.151,1.562,1.562,0,0,1,.452.151,1.9,1.9,0,0,1,.452.225,4.035,4.035,0,0,1,.376.3,2.351,2.351,0,0,1,.527.828,2.1,2.1,0,0,1,.2.953,3.121,3.121,0,0,1-.05.477,1.556,1.556,0,0,1-.151.477,1.39,1.39,0,0,1-.227.426c-.1.151-.2.276-.3.4l-.376.3a1.889,1.889,0,0,1-.452.225,1.637,1.637,0,0,1-.452.151A3.427,3.427,0,0,1,130.51,428.031Z" transform="translate(-97.455 -298.511)"/><path class="a" d="M333.541,76.392a2.1,2.1,0,0,1-.954-.2,2.409,2.409,0,0,1-1.555-2.309,2.5,2.5,0,0,1,.2-.953,2.9,2.9,0,0,1,.528-.828,2.6,2.6,0,0,1,2.734-.527,2.921,2.921,0,0,1,.828.527,2.545,2.545,0,0,1,0,3.564,2.62,2.62,0,0,1-.828.527A2.1,2.1,0,0,1,333.541,76.392Z" transform="translate(-239.398 -63.633)"/><path class="a" d="M179.5,448.34a2.507,2.507,0,0,1-1.781-.752,3.073,3.073,0,0,1-.553-.8,2.474,2.474,0,0,1-.175-.953,2.709,2.709,0,0,1,.175-.979,3.054,3.054,0,0,1,.553-.8,2.506,2.506,0,0,1,2.258-.677,2.679,2.679,0,0,1,.477.126c.151.075.3.149.426.225a1.616,1.616,0,0,1,.377.326,2.2,2.2,0,0,1,.551.8,2.722,2.722,0,0,1,.2.979,2.48,2.48,0,0,1-.2.953,2.208,2.208,0,0,1-.551.8,1.629,1.629,0,0,1-.377.326c-.125.075-.276.151-.426.225-.151.05-.3.1-.477.151A3,3,0,0,1,179.5,448.34Z" transform="translate(-131.704 -313.05)"/><path class="a" d="M284.547,56.134a2.482,2.482,0,0,1-.953-.175,3.017,3.017,0,0,1-.828-.553,2.514,2.514,0,0,1,0-3.538,2.576,2.576,0,0,1,3.562,0,2.429,2.429,0,0,1,.728,1.757,2.484,2.484,0,0,1-.728,1.781,2.4,2.4,0,0,1-.828.553A2.482,2.482,0,0,1,284.547,56.134Z" transform="translate(-205.145 -49.145)"/><path class="a" d="M177.668,200.157V192.63H167.632v7.527H157.6V192.63h-7.527V182.594H157.6V170.049h-7.527V160.014H157.6V149.978h-7.527V139.942H157.6v-7.527h10.036v7.527h10.036v-7.527H187.7v7.736A15.078,15.078,0,0,1,200.248,155a14.918,14.918,0,0,1-3.092,9.055,16.287,16.287,0,0,1-9.453,28.532v7.574Zm8.782-17.563a6.272,6.272,0,0,0,0-12.545H167.632v12.545Zm-1.255-22.581a5.018,5.018,0,1,0,0-10.036H167.632v10.036Z" transform="translate(-111.434 -99.307)"/></g></svg>