<svg xmlns="http://www.w3.org/2000/svg" width="79.2" height="108" viewBox="0 0 79.2 108"><defs><style>.a{fill:#e3e3e3;}</style></defs><g transform="translate(-10 -1)"><path class="a" d="M28.37,23a8.846,8.846,0,0,0-8.836,8.836v5.627A5.289,5.289,0,0,0,21.3,47.74h2.386A10.607,10.607,0,0,0,26,51.508,12.388,12.388,0,0,0,16,63.644v7.069a1.768,1.768,0,0,0,1.767,1.767H49.576a1.768,1.768,0,0,0,1.767-1.767V63.644a12.388,12.388,0,0,0-10-12.137,10.607,10.607,0,0,0,2.315-3.768h2.386a5.289,5.289,0,0,0,1.767-10.278V31.836A8.846,8.846,0,0,0,38.973,23Zm5.3,28.274A7.076,7.076,0,0,1,26.6,44.206V40.672H28.37a16.529,16.529,0,0,0,10.156-4.2A8.879,8.879,0,0,0,40.74,38.9v5.309A7.076,7.076,0,0,1,33.672,51.274ZM21.3,44.206a1.767,1.767,0,0,1,0-3.534h1.767v3.534ZM47.809,63.644v5.3H19.534v-5.3a8.846,8.846,0,0,1,8.836-8.836h10.6A8.846,8.846,0,0,1,47.809,63.644ZM46.042,44.206H44.274V40.672h1.767a1.767,1.767,0,0,1,0,3.534Zm-1.767-12.37v5a5.312,5.312,0,0,1-3.534-5,1.767,1.767,0,0,0-3.534,0c0,2.458-5.347,5.3-8.836,5.3h-5.3v-5.3a5.308,5.308,0,0,1,5.3-5.3h10.6A5.308,5.308,0,0,1,44.274,31.836Z" transform="translate(4.603 15.866)"/><path class="a" d="M16,53H33.672v3.534H16Z" transform="translate(4.603 38.328)"/><path class="a" d="M16,57H33.672v3.534H16Z" transform="translate(4.603 41.397)"/><path class="a" d="M28,57H42.137v3.534H28Z" transform="translate(14.531 41.397)"/><path class="a" d="M69.4,1h-18A14.19,14.19,0,0,0,37,14.935V25.387H15.4A5.322,5.322,0,0,0,10,30.613v73.161A5.322,5.322,0,0,0,15.4,109H62.2a5.322,5.322,0,0,0,5.4-5.226V30.613a5.322,5.322,0,0,0-5.4-5.226H40.6V14.935A10.641,10.641,0,0,1,51.4,4.484H55A15.965,15.965,0,0,1,71.2,20.161V48.032a9,9,0,0,0,18,0V20.161C89.2,9.6,80.317,1,69.4,1ZM62.2,28.871A1.775,1.775,0,0,1,64,30.613v73.161a1.775,1.775,0,0,1-1.8,1.742H15.4a1.775,1.775,0,0,1-1.8-1.742V30.613a1.775,1.775,0,0,1,1.8-1.742H37v3.484H29.8v3.484h18V32.355H40.6V28.871ZM85.6,48.032a5.4,5.4,0,0,1-10.8,0V20.161A18.979,18.979,0,0,0,66.372,4.484H69.4A15.965,15.965,0,0,1,85.6,20.161Z" transform="translate(0 0)"/></g></svg>