<svg xmlns="http://www.w3.org/2000/svg" xmlns:xlink="http://www.w3.org/1999/xlink" width="766.848" height="513.92" viewBox="0 0 766.848 513.92"><defs><style>.a,.d{fill:#717171;}.a,.b,.e,.j{opacity:0.1;}.c{fill:#fa6f98;}.f{fill:#e3e3e3;}.g{fill:#08a522;}.h{fill:url(#a);}.i{fill:none;stroke:#717171;stroke-linecap:round;stroke-miterlimit:10;stroke-width:7px;}.j{fill:#ffbd37;}.k{fill:#a8a8a8;}.l{opacity:0.2;}.m{fill:url(#c);}.n{fill:#282828;}.o{fill:#696791;}.p{fill:#a0616a;}.q{fill:#f86d70;}.r{fill:#2d293d;}</style><linearGradient id="a" x1="0.5" x2="0.5" y2="1" gradientUnits="objectBoundingBox"><stop offset="0" stop-color="#08a522"/><stop offset="1" stop-color="#e3e3e3"/></linearGradient><linearGradient id="c" x1="0.627" y1="0.5" x2="1.626" y2="0.5" gradientUnits="objectBoundingBox"><stop offset="0" stop-color="gray" stop-opacity="0.251"/><stop offset="0.54" stop-color="gray" stop-opacity="0.122"/><stop offset="1" stop-color="gray" stop-opacity="0.102"/></linearGradient></defs><ellipse class="a" cx="44.071" cy="11.7" rx="44.071" ry="11.7" transform="translate(620.441 490.521)"/><path class="a" d="M780.409,515.6c-16.768,13.2-40.628,18.658-63.7,22.108l-3.884.562c-24.1,3.41-48.472,5.226-72.924,6.33-13.084.6-26.167,1.026-39.251,1.4l-10.253.287q-19.97.562-40.015,1.1-19.626.529-39.251.993-25.135.582-50.269.967-19.625.294-39.251.405-25.141.137-50.269-.091-19.639-.189-39.251-.653-25.148-.614-50.269-1.8-17.05-.79-34.08-1.9l-5.172-.346c-48.733-3.332-98.341-9.31-140.987-28.2l-1.15-.516c-.572-.255-1.143-.51-1.715-.777A156.463,156.463,0,0,1,76.292,503c-12.609-8.532-23.02-18.946-28.522-31.3-8.621-19.377-4.063-41.158,5.784-60.1s24.632-36.049,37.419-53.891c3.746-5.226,7.3-10.649,10.6-16.208,20.658-34.867,30.905-75.214,9.248-108.814a149.612,149.612,0,0,0-9.248-12.413c-5.282-6.533-10.653-13.066-14.282-20.3-8.463-16.829-6.645-35.755-3.56-53.734,4.132-23.9,11.706-49.651,35.381-64.585,24.563-15.509,59.428-14.725,89.913-9.146,47.4,8.617,91.145,26.655,135.306,42.922s90.422,31.143,138.976,32.743a233.712,233.712,0,0,0,31.249-1.078h0a207.523,207.523,0,0,0,40.711-8.134c19.109-5.971,36.5-14.954,49.387-27.439,27.648-26.687,79.6-28.706,117.065-12.589,35.746,15.379,58.863,47.926,57.155,80.434-1.942,36.186-30.506,65.937-56.68,96.453-3.174,3.7-6.308,7.408-9.358,11.145q-2.555,3.129-5.013,6.272h0c-2.871,3.7-5.647,7.415-8.263,11.178-13.373,19.292-22.828,42.464-13.621,63.292,5.165,11.661,15.019,20.559,26.9,28.327,26.615,17.4,63.353,29.1,79.879,53.459C806.962,470.486,801.687,498.819,780.409,515.6Z" transform="translate(-43.213 -61.471)"/><g class="b" transform="translate(315.277 0)"><path class="c" d="M598.7,597.982q.041.971.145,1.9,8.036-3.2,15.776-6.886a12.788,12.788,0,0,0,7.292-3.567c1.508-.757,3.009-1.549,4.5-2.341a18.444,18.444,0,0,0-1.143-2.066c-2.9-4.579-7.306-7.444-12.161-7.286s-9.055,3.305-11.651,8.05A23.731,23.731,0,0,0,598.7,597.982Z" transform="translate(-531.452 -219.929)"/><path class="c" d="M597.55,563.022a23.805,23.805,0,0,0,3.546,11.927c2.906,4.565,7.313,7.43,12.168,7.272.337,0,.689-.048,1-.076a12.788,12.788,0,0,0,7.293-3.567,17.54,17.54,0,0,0,3.354-4.393,24.666,24.666,0,0,0-.785-24.1c-2.906-4.579-7.313-7.444-12.168-7.285s-9.048,3.305-11.644,8.05A23.738,23.738,0,0,0,597.55,563.022Z" transform="translate(-531.094 -209.049)"/><ellipse class="c" cx="15.06" cy="19.715" rx="15.06" ry="19.715" transform="matrix(0.999, -0.033, 0.033, 0.999, 65.031, 310.176)"/><ellipse class="c" cx="15.06" cy="19.715" rx="15.06" ry="19.715" transform="matrix(0.999, -0.033, 0.033, 0.999, 64.241, 286.099)"/><ellipse class="c" cx="15.06" cy="19.715" rx="15.06" ry="19.715" transform="matrix(0.999, -0.033, 0.033, 0.999, 63.451, 262.016)"/><path class="d" d="M631.165,172.738a71.687,71.687,0,0,0,5.33-8.436l-39.761-5.192,42.777-1.088a72.229,72.229,0,0,0-.5-57.155l-56.4,31.642L634.257,91.88a72.133,72.133,0,1,0-116.452,84.6,72.424,72.424,0,0,0-7.788,13.414l52.2,24.983-55.337-16.568a72.167,72.167,0,0,0,13.848,67.312,72.126,72.126,0,1,0,113.319-3.753,72.146,72.146,0,0,0-2.885-89.134Z" transform="translate(-501.054 -58.134)"/><path class="e" d="M505.1,294.888a71.8,71.8,0,0,0,16.892,44.071,72.126,72.126,0,1,0,113.319-3.732C644.572,322.653,504.838,286.8,505.1,294.888Z" transform="translate(-502.314 -131.489)"/></g><g class="b" transform="translate(165.655 209.725)"><path class="c" d="M360.469,784.865a11.805,11.805,0,0,1-.1,1.377q-5.715-2.273-11.231-4.869a9.1,9.1,0,0,1-5.192-2.527q-1.611-.819-3.2-1.666a13.006,13.006,0,0,1,.813-1.46c2.066-3.264,5.192-5.3,8.649-5.192s6.445,2.341,8.263,5.716A16.871,16.871,0,0,1,360.469,784.865Z" transform="translate(-301.513 -515.686)"/><path class="c" d="M360.494,759.963a16.933,16.933,0,0,1-2.507,8.491c-2.066,3.25-5.2,5.3-8.649,5.185l-.689-.055a9.1,9.1,0,0,1-5.192-2.527,12.4,12.4,0,0,1-2.389-3.126,17.581,17.581,0,0,1,.537-17.14c2.066-3.264,5.2-5.3,8.649-5.192s6.445,2.341,8.3,5.715A16.871,16.871,0,0,1,360.494,759.963Z" transform="translate(-301.001 -507.923)"/><ellipse class="c" cx="14.027" cy="10.715" rx="14.027" ry="10.715" transform="translate(38.188 248.277) rotate(-88.19)"/><ellipse class="c" cx="14.027" cy="10.715" rx="14.027" ry="10.715" transform="translate(38.723 231.141) rotate(-88.19)"/><ellipse class="c" cx="14.027" cy="10.715" rx="14.027" ry="10.715" transform="translate(39.265 213.997) rotate(-88.19)"/><path class="d" d="M297.785,482.2a52.206,52.206,0,0,1-3.808-6l28.288-3.76-30.444-.689a51.4,51.4,0,0,1,.3-40.683l40.167,22.47-36.786-28.887a51.329,51.329,0,1,1,82.923,60.089,51.248,51.248,0,0,1,5.557,9.544l-37.13,17.821,39.368-11.844a51.405,51.405,0,0,1-9.792,47.928,51.329,51.329,0,1,1-80.651-2.548,51.329,51.329,0,0,1,2-63.435Z" transform="translate(-283.775 -400.451)"/><path class="e" d="M388.407,569.052a51.143,51.143,0,0,1-11.975,31.38,51.329,51.329,0,1,1-80.651-2.548C289.177,588.933,388.6,563.289,388.407,569.052Z" transform="translate(-283.775 -452.691)"/></g><g class="b" transform="translate(524.275 131.98)"><path class="c" d="M881.239,654.815a13.352,13.352,0,0,1-.1,1.377q-5.722-2.273-11.231-4.869a9.13,9.13,0,0,1-5.2-2.527c-1.067-.544-2.142-1.1-3.2-1.667a14.2,14.2,0,0,1,.813-1.46c2.066-3.264,5.192-5.3,8.649-5.192s6.445,2.341,8.263,5.716A16.872,16.872,0,0,1,881.239,654.815Z" transform="translate(-822.293 -385.551)"/><path class="c" d="M881.318,629.913A16.933,16.933,0,0,1,878.8,638.4c-2.066,3.25-5.192,5.3-8.649,5.185l-.689-.055a9.131,9.131,0,0,1-5.2-2.527,12.619,12.619,0,0,1-2.389-3.126,17.581,17.581,0,0,1,.537-17.14c2.066-3.257,5.2-5.3,8.649-5.192s6.452,2.341,8.3,5.716a16.871,16.871,0,0,1,1.956,8.649Z" transform="translate(-821.794 -377.788)"/><ellipse class="c" cx="14.027" cy="10.715" rx="14.027" ry="10.715" transform="translate(38.203 248.357) rotate(-88.19)"/><ellipse class="c" cx="14.027" cy="10.715" rx="14.027" ry="10.715" transform="translate(38.745 231.22) rotate(-88.19)"/><ellipse class="c" cx="14.027" cy="10.715" rx="14.027" ry="10.715" transform="translate(39.287 214.084) rotate(-88.19)"/><path class="d" d="M818.559,352.114a50.651,50.651,0,0,1-3.8-6l28.288-3.725-30.444-.737a51.439,51.439,0,0,1,.3-40.683l40.167,22.47L816.28,294.567A51.336,51.336,0,1,1,899.2,354.655a51.223,51.223,0,0,1,5.55,9.544l-37.13,17.821,39.368-11.844A51.35,51.35,0,0,1,897.2,418.1a51.323,51.323,0,1,1-80.63-2.548,51.329,51.329,0,0,1,2-63.435Z" transform="translate(-804.559 -270.277)"/><path class="e" d="M909.19,439a51.094,51.094,0,0,1-11.982,31.373,51.323,51.323,0,1,1-80.637-2.548C809.96,458.882,909.369,433.231,909.19,439Z" transform="translate(-804.561 -322.555)"/></g><ellipse class="f" cx="39.258" cy="7.547" rx="39.258" ry="7.547" transform="translate(93.987 483.29)"/><ellipse class="g" cx="4.572" cy="5.984" rx="4.572" ry="5.984" transform="translate(128.019 481.645)"/><ellipse class="g" cx="4.572" cy="5.984" rx="4.572" ry="5.984" transform="translate(128.019 474.332)"/><ellipse class="g" cx="4.572" cy="5.984" rx="4.572" ry="5.984" transform="translate(128.019 467.018)"/><ellipse class="g" cx="4.572" cy="5.984" rx="4.572" ry="5.984" transform="translate(128.019 459.705)"/><ellipse class="g" cx="4.572" cy="5.984" rx="4.572" ry="5.984" transform="translate(128.019 452.392)"/><ellipse class="c" cx="4.572" cy="5.984" rx="4.572" ry="5.984" transform="translate(128.019 445.079)"/><ellipse class="c" cx="4.572" cy="5.984" rx="4.572" ry="5.984" transform="translate(128.019 437.766)"/><path class="d" d="M242.926,651.592a22.263,22.263,0,0,0,1.7-2.507l-12.009-1.976,12.987.1a21.96,21.96,0,0,0,.42-17.353L228.6,638.9l16.072-11.837A21.9,21.9,0,1,0,208.5,651.571a22.036,22.036,0,0,0-2.493,3.994l15.59,8.1-16.623-5.578a21.912,21.912,0,0,0,3.526,20.562,21.9,21.9,0,1,0,34.431,0,21.912,21.912,0,0,0,0-27.076Z" transform="translate(-93.223 -257.89)"/><path class="e" d="M203.82,687.134a21.808,21.808,0,0,0,4.683,13.538,21.9,21.9,0,1,0,34.431,0C245.86,696.947,203.82,684.676,203.82,687.134Z" transform="translate(-93.223 -279.894)"/><path class="g" d="M371.961,572.254V727.881q-17.05-.833-34.08-2l-5.172-.365V572.254a6.074,6.074,0,0,1,6.074-6.074h27.1A6.074,6.074,0,0,1,371.961,572.254Z" transform="translate(-133.358 -242.332)"/><path class="h" d="M462.71,682.8V421.254a6.074,6.074,0,0,1,6.074-6.074h27.1a6.074,6.074,0,0,1,6.074,6.074V683.479Z" transform="translate(-173.838 -195.313)"/><path class="g" d="M592.71,708.216V500.254a6.074,6.074,0,0,1,6.074-6.074h27.1a6.074,6.074,0,0,1,6.074,6.074V707.768Z" transform="translate(-214.318 -219.912)"/><path class="h" d="M761.961,276.254v359.7q-19.626.558-39.251,1.047V276.254a6.074,6.074,0,0,1,6.074-6.074h27.1A6.074,6.074,0,0,1,761.961,276.254Z" transform="translate(-254.797 -150.162)"/><path class="g" d="M891.961,381.254v284.4c-13.084.634-26.167,1.081-39.251,1.481V381.254a6.074,6.074,0,0,1,6.074-6.074h27.1A6.074,6.074,0,0,1,891.961,381.254Z" transform="translate(-295.278 -182.857)"/><path class="i" d="M318.5,293.24l89.52-99.849,89.52,50.269L587.06,89.41l89.52,73.682" transform="translate(-99.178 -28.078)"/><circle class="d" cx="19.281" cy="19.281" r="19.281" transform="translate(199.697 233.13)"/><circle class="d" cx="19.281" cy="19.281" r="19.281" transform="translate(289.217 138.459)"/><circle class="d" cx="19.281" cy="19.281" r="19.281" transform="translate(378.737 186.121)"/><circle class="d" cx="19.281" cy="19.281" r="19.281" transform="translate(468.257 42.051)"/><circle class="d" cx="19.281" cy="19.281" r="19.281" transform="translate(640.411 195.261)"/><ellipse class="j" cx="12.863" cy="2.176" rx="12.863" ry="2.176" transform="translate(148.05 469.188)"/><path class="k" d="M264.35,763.938s7.334-.227,9.544-1.8,11.286-3.443,11.837-.93,11.018,12.56,2.754,12.629-19.247-1.295-21.45-2.637S264.35,763.938,264.35,763.938Z" transform="translate(-112.071 -302.676)"/><path class="l" d="M288.617,774.741c-8.263.069-19.24-1.288-21.45-2.63-1.68-1.026-2.348-4.7-2.575-6.39h-.241s.461,5.915,2.672,7.258,13.166,2.706,21.45,2.637c2.389,0,3.216-.868,3.168-2.128C291.309,774.252,290.4,774.727,288.617,774.741Z" transform="translate(-112.071 -304.465)"/><ellipse class="a" cx="23.626" cy="3.994" rx="23.626" ry="3.994" transform="translate(708.921 485.825)"/><path class="k" d="M1084,776.959s13.476-.413,17.539-3.305,20.727-6.342,21.733-1.708,20.259,23.069,5.041,23.193-35.353-2.369-39.409-4.82S1084,776.959,1084,776.959Z" transform="translate(-367.297 -305.698)"/><path class="l" d="M1128.558,796.837c-15.219.124-35.354-2.369-39.41-4.82-3.085-1.88-4.318-8.629-4.731-11.707h-.448s.854,10.873,4.9,13.338,24.2,4.965,39.41,4.82c4.393,0,5.908-1.6,5.825-3.911C1133.5,795.935,1131.822,796.809,1128.558,796.837Z" transform="translate(-367.288 -309.008)"/><path class="m" d="M892.76,396.908a6.2,6.2,0,0,0,1.377,3.285,11.916,11.916,0,0,0,3.836,2.321,15.15,15.15,0,0,1,7.41,8.518c2.293,6.693,2.589,13.772,5.509,20.232s6.349,12.664,8.869,19.281c1.432,3.753,2.575,7.657,4.676,11.073a17.174,17.174,0,0,0,3.836,4.414c-.158,2.424-.22,4.82-.207,7.244a2.754,2.754,0,0,1,2.355,1.239,7.168,7.168,0,0,1,1.033,2.582c.944,3.9-.22,8.064.627,11.989a60.983,60.983,0,0,1-2.066,32.806c-.943,2.672-2.128,11.514-1.122,14.165,3.746-.379,7.065,1.921,10.57,3.443a14.544,14.544,0,0,1-.5,6.2c-1.26,3.629-1.253,7.575-1.233,11.41l.172,28.412a42.854,42.854,0,0,0,.95,10.742c1.026,3.932,3.181,7.94,3.113,12-.186,8.745,3.946,17.078,3.615,25.754-.062,1.667-.289,3.319-.448,4.972a56.562,56.562,0,0,0,.33,13.215c1.253,8.718,4.566,17.291,3.739,26.057-.055.592-.255,1.377-.813,1.6.689.778,1.419,1.549,2.162,2.286a1.963,1.963,0,0,1-.6.627,6.087,6.087,0,0,1-2.631.689,5.574,5.574,0,0,0-3.009.978,4.332,4.332,0,0,0-1.253,2.3,6.2,6.2,0,0,0,.826,5.151,5.751,5.751,0,0,0,2.334,1.749c3.181,1.377,6.831.379,10.15-.627l13-3.939a4.379,4.379,0,0,0,2.114-1.1,2.317,2.317,0,0,0,.516-1.116c2.871.689,6.025-.158,8.952-1.033l13-3.946a4.319,4.319,0,0,0,2.114-1.1,2.521,2.521,0,0,0,.53-2.066c.1-.041.193-.069.289-.117.992-.448,2.066-1.322,1.825-2.376-.172-.689-.861-1.088-1.157-1.722a2.485,2.485,0,0,1,.482-2.431c.51-.689,1.2-1.26,1.667-1.983,1.5-2.3.482-5.323-.083-8.016-1.219-5.75-.09-11.755-.861-17.58-.262-1.963-.737-3.891-1.115-5.839a119.314,119.314,0,0,1-1.591-13.924c-.5-6.666-2.348-13.235-1.288-19.846a77.056,77.056,0,0,0,.654-11.706,50.953,50.953,0,0,0-.324-7.465c-.269-1.845-.744-3.657-.95-5.509a49.915,49.915,0,0,1-.11-6.26,61.915,61.915,0,0,0-1.281-13.855c-1.377-6.259-3.967-12.25-5.068-18.524.372.083.744.165,1.1.262.042-4.82-4.18-15.3-5.743-19.873a5.783,5.783,0,0,1-.413-1.756,18.932,18.932,0,0,1,.434-2.362c.2-1.666-.689-3.25-.93-4.917a11.533,11.533,0,0,1,.255-3.5c1.109-6.163,2.486-12.278,3.863-18.386a19.584,19.584,0,0,0,.613-6.8,8.532,8.532,0,0,1,2.066-6.769,8.025,8.025,0,0,0,1.529-1.921,4.876,4.876,0,0,0,.3-1.921,30.867,30.867,0,0,0-1.24-8.367,21.653,21.653,0,0,0,2.011-7.444,120.881,120.881,0,0,0,1.515-16.961,28.747,28.747,0,0,0-1.239-8.952,35.54,35.54,0,0,0-2.355-5.192c-3.622-6.976-7.086-14.316-11.658-20.707-1.377-1.942-.51-4.621-.413-7.017.1-2.892-1.04-5.667-2.162-8.325a13.66,13.66,0,0,0-2.589-4.455,4.207,4.207,0,0,0-3.03-1.377,4.565,4.565,0,0,0-3.23,1.976,10.653,10.653,0,0,0-1.935,7.967,15.4,15.4,0,0,0,3.505,7.527,17.057,17.057,0,0,0,3.023,2.872q1.708,5.426,3.443,10.846a135.3,135.3,0,0,0,6.2,16.967,13.391,13.391,0,0,1,1.667,4.924c.1,1.88-.689,3.67-1.315,5.44a38.394,38.394,0,0,0-2.217,11.472,3.94,3.94,0,0,0-.578.317c-2.169,1.419-2.851,4.511-5.11,5.778-1.315.737-2.913.689-4.386,1.026a1.511,1.511,0,0,0-.4.11c-.055-.275-.11-.544-.145-.826a2.227,2.227,0,0,1,0-.53,23.131,23.131,0,0,0,8.56-8.153,7.457,7.457,0,0,0,1.012-2.066,7.988,7.988,0,0,0,.1-2.686,42.867,42.867,0,0,0-1.274-8.849,14.715,14.715,0,0,0-4.607-7.5c-1.129-.909-2.431-1.591-3.553-2.507-2.19-1.77-3.691-4.387-6.2-5.7a7.458,7.458,0,0,0-9.372,2.424,5.43,5.43,0,0,1-1.377,1.749,14.154,14.154,0,0,0-1.281.689,2.622,2.622,0,0,0-.551,2.713,28.244,28.244,0,0,1,.785,5.915,14.461,14.461,0,0,0-.041,18.71c0,1.281,0,2.562-.048,3.842a3.716,3.716,0,0,1-.048.73,4.964,4.964,0,0,1-2.066-1.377c-.771-.964-.909-2.383-1.853-3.174a5.224,5.224,0,0,0-2.259-.826,14.028,14.028,0,0,1-5.509-2.61c-1.274-.985-2.6-2.245-4.084-2.534a90.6,90.6,0,0,0-8.952-13.662,26.613,26.613,0,0,1-2.341-3.216c-1.481-2.582-1.921-5.619-2.858-8.449-2.617-7.933-9.145-14.3-10.736-22.5-.578-2.975-2.465-5.564-3.76-8.3-.875-1.852-1.839-3.808-3.588-4.868A6.108,6.108,0,0,0,895,389.588,8.7,8.7,0,0,0,892.76,396.908ZM974.52,675.584a6.087,6.087,0,0,1-2.63.689,12.672,12.672,0,0,0-1.377.22c-.172-1.446-.268-2.913-.379-4.338-.365-4.676-1.095-9.317-1.818-13.951-.757-4.82-1.116-10.1-2.754-14.723-2.637-7.533-5.309-15.294-4.972-23.275.076-1.811.3-3.608.4-5.413.22-4.469-.406-9.035.689-13.38.489-1.976,1.322-3.863,1.639-5.874a27.882,27.882,0,0,0,.069-5.468,72.673,72.673,0,0,1,1.563-18.834,13.292,13.292,0,0,1,2.066,5.908l2.582,14.006c1.536,8.312,2.892,17.126,6.962,24.522-.572,2.665-1.136,5.509-.193,8.057.406,1.1,1.074,2.066,1.487,3.181.689,1.852.592,3.891.8,5.853.448,4.132,2.155,8.195.9,12.182a59.414,59.414,0,0,0-2.5,12.643,30.777,30.777,0,0,1-.413,3.56c-.22,1.06-.578,2.066-.778,3.154a10.447,10.447,0,0,0,.2,4.593,9.381,9.381,0,0,1,.565,2.582c0,.881-1.081,1.515-1.949,1.653.255.33.53.647.813.957A3.016,3.016,0,0,1,974.52,675.584Z" transform="translate(-307.714 -185.862)"/><path class="n" d="M970.017,816.963a5.571,5.571,0,0,0-3.009.978,4.242,4.242,0,0,0-1.253,2.286,6.115,6.115,0,0,0,.826,5.109,5.737,5.737,0,0,0,2.334,1.742c3.182,1.377,6.831.372,10.15-.627l13-3.911a4.366,4.366,0,0,0,2.114-1.095,2.871,2.871,0,0,0,.055-3.347,6.5,6.5,0,0,0-2.754-2.2c-4.042-1.969-8.6-2.417-13.042-2.5-1.653,0-3.285-.4-4.407.875-.592.689-.482,1.425-1.377,2.011A6.2,6.2,0,0,1,970.017,816.963Z" transform="translate(-330.405 -319.295)"/><path class="n" d="M1005.688,806.584a5.626,5.626,0,0,0-3.009.978,4.27,4.27,0,0,0-1.253,2.286,6.135,6.135,0,0,0,.826,5.116,5.785,5.785,0,0,0,2.334,1.735c3.188,1.377,6.831.379,10.15-.62l13-3.918a4.368,4.368,0,0,0,2.114-1.095,2.865,2.865,0,0,0,.055-3.34,6.52,6.52,0,0,0-2.755-2.2c-4.049-1.969-8.608-2.424-13.049-2.507-1.653,0-3.278-.393-4.407.881-.592.689-.482,1.419-1.377,2a5.989,5.989,0,0,1-2.63.675Z" transform="translate(-341.513 -316.063)"/><path class="o" d="M980.947,602.2a160.154,160.154,0,0,1,23.062-.647,4.585,4.585,0,0,1,1.494.234c1.694.688,1.956,2.906,2.114,4.717.689,7.354,3.9,14.206,5.509,21.409a61.171,61.171,0,0,1,1.281,13.772,49.37,49.37,0,0,0,.11,6.2c.207,1.839.689,3.643.95,5.474a50.264,50.264,0,0,1,.324,7.416,76.118,76.118,0,0,1-.654,11.617c-1.061,6.563.792,13.084,1.288,19.722a117.657,117.657,0,0,0,1.563,13.848c.379,1.935.854,3.849,1.116,5.8.771,5.791-.358,11.755.861,17.47.565,2.672,1.584,5.674.083,7.96-.468.689-1.157,1.274-1.666,1.969a2.458,2.458,0,0,0-.482,2.417c.3.627.985,1.04,1.157,1.708.269,1.054-.833,1.914-1.825,2.362a19.012,19.012,0,0,1-22.146-5.468c.868-.138,1.928-.764,1.949-1.646a9.3,9.3,0,0,0-.565-2.562,10.325,10.325,0,0,1-.2-4.559c.2-1.06.558-2.066.778-3.133a30.45,30.45,0,0,0,.413-3.539,58.688,58.688,0,0,1,2.5-12.56c1.253-3.959-.454-7.967-.9-12.1-.207-1.956-.117-3.973-.8-5.819-.413-1.088-1.081-2.066-1.487-3.154-.943-2.541-.379-5.364.193-8.009-4.07-7.348-5.426-16.107-6.962-24.363l-2.582-13.91a13.676,13.676,0,0,0-2.066-5.874,71.737,71.737,0,0,0-1.563,18.71,27.542,27.542,0,0,1-.069,5.433c-.317,2-1.15,3.877-1.639,5.833-1.068,4.318-.441,8.849-.689,13.29-.1,1.8-.324,3.581-.4,5.378-.337,7.933,2.334,15.645,4.972,23.131,1.618,4.593,1.976,9.813,2.754,14.619.689,4.607,1.453,9.214,1.818,13.862.337,4.269.489,8.89,3.147,12.244-2.431,1.577-4.937,3.181-7.781,3.725a14.365,14.365,0,0,1-9.586-1.859,30.157,30.157,0,0,1-7.575-6.439c.558-.193.758-1.005.813-1.591.826-8.718-2.486-17.215-3.739-25.892a55.774,55.774,0,0,1-.331-13.125c.158-1.646.386-3.292.448-4.944.331-8.615-3.822-16.912-3.67-25.534.069-4.042-2.066-8.022-3.113-11.927a43.175,43.175,0,0,1-.95-10.674l-.172-28.233c0-3.815,0-7.726,1.233-11.328,1.515-4.338-.22-9.317-.482-13.9a57.3,57.3,0,0,0,22.166,2.472Z" transform="translate(-328.072 -252.779)"/><path class="p" d="M936.039,456.393A89.975,89.975,0,0,0,925.5,439.749a26.4,26.4,0,0,1-2.341-3.2c-1.481-2.569-1.921-5.585-2.858-8.394-2.617-7.878-9.145-14.206-10.735-22.352-.578-2.961-2.465-5.509-3.76-8.263-.874-1.839-1.839-3.781-3.588-4.82a6.116,6.116,0,0,0-7.237,1.1,8.6,8.6,0,0,0-2.217,7.265,6.149,6.149,0,0,0,1.378,3.264,12,12,0,0,0,3.835,2.307,15.067,15.067,0,0,1,7.41,8.463c2.293,6.645,2.589,13.683,5.509,20.1s6.349,12.574,8.869,19.137c1.432,3.725,2.575,7.575,4.676,11.018s5.378,6.328,9.338,6.845a23.038,23.038,0,0,1,1.123-7.354C935.757,462.157,937.285,458.962,936.039,456.393Z" transform="translate(-307.713 -175.092)"/><path class="p" d="M1011.053,460.239a38.051,38.051,0,0,1,2.238-14.309,14.83,14.83,0,0,0,1.315-5.406,13.255,13.255,0,0,0-1.666-4.9,125.565,125.565,0,0,1-6.2-16.85L1003.3,408a16.738,16.738,0,0,1-3.023-2.858,15.219,15.219,0,0,1-3.505-7.478,10.5,10.5,0,0,1,1.935-7.905,4.579,4.579,0,0,1,3.23-1.969,4.228,4.228,0,0,1,3.03,1.377,13.571,13.571,0,0,1,2.589,4.421c1.122,2.644,2.266,5.4,2.162,8.263-.1,2.383-.985,5.041.413,6.976,4.572,6.349,8.036,13.642,11.658,20.576a34.836,34.836,0,0,1,2.355,5.158,28.37,28.37,0,0,1,1.239,8.911,123.66,123.66,0,0,1-1.515,16.85c-.489,3.505-1.129,7.32-3.78,9.641A54.588,54.588,0,0,0,1011.053,460.239Z" transform="translate(-340.095 -173.678)"/><circle class="p" cx="14.289" cy="14.289" r="14.289" transform="translate(639.151 259.654)"/><path class="p" d="M990.291,493.87c.344,2.582,1.729,4.9,3.078,7.127.813,1.377,1.852,2.844,3.443,3a69.408,69.408,0,0,1-12.98,5.22,14.681,14.681,0,0,1-4.738.764,11.588,11.588,0,0,1-3.946-1.012A19.618,19.618,0,0,1,964,495.936a25.886,25.886,0,0,0,5.309-.406,3.9,3.9,0,0,0,2.6-1.281,4.13,4.13,0,0,0,.537-2.3c.069-2.383.076-4.772,0-7.155a28.233,28.233,0,0,1,10.384,1.281c1.377.448,2.755.985,4.132,1.336.868.22,3.257,0,3.9.5C991.917,488.623,990.05,492.114,990.291,493.87Z" transform="translate(-329.931 -205.812)"/><path class="q" d="M977.77,501.351a8.993,8.993,0,0,1,6.845-7.995c1.474-.331,3.071-.289,4.387-1.019,2.258-1.26,2.94-4.331,5.109-5.743s5.247-.627,7.134,1.157,2.844,4.324,3.615,6.81a34.471,34.471,0,0,1,1.852,10.432,4.821,4.821,0,0,1-.3,1.907,7.961,7.961,0,0,1-1.529,1.908,8.441,8.441,0,0,0-2.066,6.728,19.282,19.282,0,0,1-.613,6.749c-1.377,6.073-2.755,12.14-3.863,18.269a11.345,11.345,0,0,0-.255,3.443c.214,1.659,1.129,3.23.93,4.889a18.527,18.527,0,0,0-.434,2.348,5.689,5.689,0,0,0,.413,1.742c1.563,4.538,5.784,14.936,5.743,19.742-7.334-1.88-18.145-2.3-25.72-2.334a57.2,57.2,0,0,0-6.239.275c-4.979.537-10.074,1.99-14.9.647-4.483-1.246-8.449-4.82-13.084-4.373-1.005-2.63.179-11.41,1.122-14.068a60.213,60.213,0,0,0,2.066-32.592c-.847-3.9.317-8.036-.627-11.906a7.1,7.1,0,0,0-1.033-2.568,2.754,2.754,0,0,0-2.355-1.233,87.709,87.709,0,0,1,1.721-18.544c.455-2.169,1.377-4.731,3.6-5.1,1.969-.337,3.622,1.329,5.206,2.548A13.988,13.988,0,0,0,960,486.057a5.224,5.224,0,0,1,2.259.826c.943.785,1.081,2.2,1.853,3.154,1.377,1.715,4.455,1.57,5.433,3.546a13.491,13.491,0,0,1,.516,1.8,6.625,6.625,0,0,0,2.272,2.933,12.78,12.78,0,0,0,5.433,3.03Z" transform="translate(-323.691 -206.661)"/><path class="r" d="M975.209,450.354a2.611,2.611,0,0,1,.551-2.7c.379-.3.874-.406,1.281-.689a5.508,5.508,0,0,0,1.377-1.742,7.478,7.478,0,0,1,9.358-2.376c2.486,1.3,3.987,3.9,6.2,5.66,1.123.909,2.424,1.584,3.553,2.493a14.606,14.606,0,0,1,4.607,7.451,42.283,42.283,0,0,1,1.274,8.787,7.91,7.91,0,0,1-.1,2.672,7.482,7.482,0,0,1-1.012,2.066,23.007,23.007,0,0,1-9.021,8.346,13.943,13.943,0,0,1-12.023.207,2.065,2.065,0,0,1-.923-.737,2.652,2.652,0,0,1-.145-1.591,10.888,10.888,0,0,0-1.2-6.094c-.689-1.377-1.722-2.562-2.272-3.987a13.886,13.886,0,0,1-.647-4.944C976,458.845,976.3,454.527,975.209,450.354Z" transform="translate(-333.379 -191.436)"/></svg>