<svg xmlns="http://www.w3.org/2000/svg" xmlns:xlink="http://www.w3.org/1999/xlink" width="100" height="100" viewBox="0 0 100 100"><defs><style>.a{fill:url(#a);}.b,.l{fill:#590bb2;}.b{opacity:0.1;}.c{fill:#afabc6;}.d{fill:#8e8ca8;}.e{fill:#f5f4f9;}.f{fill:#ffbe92;}.g{fill:#ddd9e4;}.h{fill:#c182f9;}.i{fill:#cecae0;}.j{fill:#ffa052;}.k{fill:#fdd250;}.m{fill:#ffe783;}.n{fill:#ff8736;}</style><linearGradient id="a" x1="0.344" y1="0.5" x2="1.628" y2="0.5" gradientUnits="objectBoundingBox"><stop offset="0.001" stop-color="#fff0d5"/><stop offset="0.511" stop-color="#ffdfff"/><stop offset="1" stop-color="#d9ceff"/></linearGradient></defs><g transform="translate(0 -81.736)"><path class="a" d="M94.33,148.046c-6.825-9.178-17.477-10.444-25.358-3.8a8.054,8.054,0,0,1-7.562,1.769,20.839,20.839,0,0,0-18.107,3.33c-3.693,2.62-8.191,2.164-11.637-.978a17.909,17.909,0,0,0-7.863-4.283C12.977,141.476,2.449,150.864.368,165c-2.129,14.453,5.2,28.342,16.249,30.915a15.472,15.472,0,0,0,7.888-.208c4.089-1.186,8.361.8,11,5.049a30.13,30.13,0,0,0,6.007,7.069c12.057,10.284,28.208,5.844,36.076-9.916l.025-.05a10.259,10.259,0,0,1,6.273-5.647,19.227,19.227,0,0,0,10.3-7.275C101.881,174.789,101.945,158.286,94.33,148.046Z" transform="translate(0 -32.417)"/><path class="b" d="M115.171,176.472V158.245c0-1.41-.838-2.554-1.871-2.554h-9.168V127.8c0-2.116-1.257-3.831-2.806-3.831H50.23c-1.55,0-2.806,1.715-2.806,3.831V148.03H32.871c-1.033,0-1.871,1.143-1.871,2.554v25.888Z" transform="translate(-23.085 -31.45)"/><path class="c" d="M248.366,372.13H225.38l3.01-11.923,1.588-6.293h13.789l1.588,6.293Z" transform="translate(-184.245 -191.671)"/><path class="d" d="M254.135,360.207H237.17l1.588-6.293h13.789Z" transform="translate(-192.97 -191.671)"/><path class="e" d="M194.424,210.582h-71.68c-2.174,0-3.937-2.043-3.937-4.563V146.531c0-2.52,1.763-4.563,3.937-4.563h71.68c2.174,0,3.937,2.043,3.937,4.563v59.487C198.361,208.539,196.6,210.582,194.424,210.582Z" transform="translate(-107.175 -44.854)"/><path class="f" d="M214.085,199.423H157.662a.766.766,0,0,1-.766-.766V180.2h57.955v18.458A.766.766,0,0,1,214.085,199.423Z" transform="translate(-133.75 -69.355)"/><path class="g" d="M208.6,271.443h-27.2a1.277,1.277,0,0,1,0-2.553h27.2a1.277,1.277,0,1,1,0,2.553Z" transform="translate(-148.132 -133.281)"/><path class="g" d="M208.6,291.443h-27.2a1.277,1.277,0,0,1,0-2.553h27.2a1.277,1.277,0,0,1,0,2.553Z" transform="translate(-148.132 -147.524)"/><path class="f" d="M328.624,291.443h-4.218a1.277,1.277,0,0,1,0-2.553h4.218a1.277,1.277,0,0,1,0,2.553Z" transform="translate(-261.078 -147.524)"/><path class="h" d="M198.361,151.729V145.8a3.885,3.885,0,0,0-3.937-3.831h-71.68a3.885,3.885,0,0,0-3.937,3.831v5.93Z" transform="translate(-107.175 -42.716)"/><path class="i" d="M118.807,327.572v6.38a3.885,3.885,0,0,0,3.937,3.831h71.68a3.885,3.885,0,0,0,3.937-3.831v-6.38Z" transform="translate(-107.175 -174.293)"/><path class="j" d="M408.427,306.827h-18.9a2.554,2.554,0,0,1-2.554-2.554v-35.5a2.554,2.554,0,0,1,2.554-2.554h18.9a2.554,2.554,0,0,1,2.554,2.554v35.5A2.554,2.554,0,0,1,408.427,306.827Z" transform="translate(-318.895 -126.368)"/><path class="e" d="M386.976,363.283v13.271a2.554,2.554,0,0,0,2.554,2.554h18.9a2.554,2.554,0,0,0,2.554-2.554V363.283Z" transform="translate(-318.896 -198.648)"/><path class="i" d="M421.221,269.852l1.182-3.63H410.315l1.182,3.63a1.277,1.277,0,0,0,1.214.882h7.295A1.277,1.277,0,0,0,421.221,269.852Z" transform="translate(-336.276 -131.242)"/><path class="e" d="M67.774,284.48H33.554A2.554,2.554,0,0,1,31,281.927V238.768a2.554,2.554,0,0,1,2.554-2.554h34.22a2.554,2.554,0,0,1,2.554,2.554v43.159A2.554,2.554,0,0,1,67.774,284.48Z" transform="translate(-23.085 -104.021)"/><path class="k" d="M70.328,244.557v-5.789a2.554,2.554,0,0,0-2.554-2.554H33.554A2.554,2.554,0,0,0,31,238.768v5.789Z" transform="translate(-23.085 -109.65)"/><path class="f" d="M63.2,320.594H55.286a.766.766,0,0,1-.766-.766V292.382a.766.766,0,0,1,.766-.766H63.2a.766.766,0,0,1,.766.766v27.446A.766.766,0,0,1,63.2,320.594Z" transform="translate(-40.6 -145.278)"/><path class="f" d="M119.051,301.062H106.286a.766.766,0,0,1-.766-.766v-7.915a.766.766,0,0,1,.766-.766h12.766a.766.766,0,0,1,.766.766V300.3A.766.766,0,0,1,119.051,301.062Z" transform="translate(-85.688 -148.873)"/><path class="f" d="M119.051,358.534H106.286a.766.766,0,0,1-.766-.766V343.33a.766.766,0,0,1,.766-.766h12.766a.766.766,0,0,1,.766.766v14.438A.766.766,0,0,1,119.051,358.534Z" transform="translate(-85.688 -183.219)"/><g transform="translate(6.638 106.854)"><path class="l" d="M145.307,156.026a1.277,1.277,0,0,0-1.277,1.277v.029a1.277,1.277,0,0,0,2.553,0V157.3A1.277,1.277,0,0,0,145.307,156.026Z" transform="translate(-121.953 -151.16)"/><path class="l" d="M160.645,156.026a1.277,1.277,0,0,0-1.277,1.277v.029a1.277,1.277,0,1,0,2.553,0V157.3A1.277,1.277,0,0,0,160.645,156.026Z" transform="translate(-134.422 -151.16)"/><path class="l" d="M175.982,156.026a1.277,1.277,0,0,0-1.277,1.277v.029a1.277,1.277,0,1,0,2.553,0V157.3A1.277,1.277,0,0,0,175.982,156.026Z" transform="translate(-146.89 -151.16)"/><path class="l" d="M109.9,168.691h-8.3V142.075c0-2.816-1.692-5.107-3.771-5.107h-51.5c-2.079,0-3.771,2.291-3.771,5.107v13.2c0,.7.422,1.277.943,1.277s.943-.572.943-1.277v-5.993H99.712v19.409H95.941c-1.56,0-2.829,1.718-2.829,3.83V178.6c0,.7.422,1.277.943,1.277S95,179.3,95,178.6v-6.078c0-.7.423-1.277.943-1.277h1.83l.661,2.749a2.036,2.036,0,0,0,1.793,1.763h5.387a2.036,2.036,0,0,0,1.793-1.763l.661-2.749h1.83c.52,0,.943.573.943,1.277v35.5c0,.7-.423,1.277-.943,1.277H95.941c-.52,0-.943-.573-.943-1.277V185.631c0-.7-.422-1.277-.943-1.277H56.927V164.861c0-2.112-1.269-3.83-2.829-3.83H28.829c-1.56,0-2.829,1.718-2.829,3.83v43.159c0,2.112,1.269,3.83,2.829,3.83H54.1c1.56,0,2.829-1.718,2.829-3.83v-10.9h8.2L62.856,209.3H60.714c-.521,0-.943.572-.943,1.277s.422,1.277.943,1.277H83.438c.521,0,.943-.572.943-1.277s-.422-1.277-.943-1.277H81.3l-2.269-12.178H93.112v10.9c0,2.112,1.269,3.83,2.829,3.83H109.9c1.56,0,2.829-1.718,2.829-3.83v-35.5c0-2.112-1.269-3.83-2.829-3.83ZM44.44,146.729v-4.654c0-1.408.846-2.554,1.886-2.554h51.5c1.04,0,1.886,1.146,1.886,2.554v4.654ZM105.611,173.2h-5.387l-.471-1.958h6.329Zm-76.783-9.62H54.1c.52,0,.943.573.943,1.277v4.512H27.885V164.86C27.885,164.156,28.308,163.583,28.829,163.583Zm26.213,44.436c0,.7-.423,1.277-.943,1.277H28.829c-.52,0-.943-.573-.943-1.277V171.926H55.041ZM79.352,209.3H64.8l2.269-12.178H77.083ZM56.927,194.565v-7.657H93.112v7.657Z" transform="translate(-26 -136.968)"/><path class="l" d="M53.451,250.077a1.277,1.277,0,0,0,1.277-1.277v-.029a1.277,1.277,0,0,0-2.553,0v.029A1.277,1.277,0,0,0,53.451,250.077Z" transform="translate(-45.492 -219.276)"/><path class="l" d="M68.788,250.077a1.277,1.277,0,0,0,1.277-1.277v-.029a1.277,1.277,0,0,0-2.553,0v.029A1.277,1.277,0,0,0,68.788,250.077Z" transform="translate(-56.913 -219.276)"/><path class="l" d="M84.125,250.077A1.277,1.277,0,0,0,85.4,248.8v-.029a1.277,1.277,0,1,0-2.553,0v.029A1.277,1.277,0,0,0,84.125,250.077Z" transform="translate(-67.954 -219.276)"/><path class="l" d="M261.741,204.451l.587-.587.587.587a1.277,1.277,0,1,0,1.805-1.806l-1.489-1.489a1.277,1.277,0,0,0-1.805,0l-1.489,1.489a1.277,1.277,0,0,0,1.805,1.806Z" transform="translate(-216.3 -184.49)"/></g><path class="m" d="M411.34,333.562h-3.574A.766.766,0,0,1,407,332.8V310.882a.766.766,0,0,1,.766-.766h3.574a.766.766,0,0,1,.766.766V332.8A.766.766,0,0,1,411.34,333.562Z" transform="translate(-328.5 -159.055)"/><path class="m" d="M385.981,89.906a1.277,1.277,0,0,1-1.277-1.277,1.533,1.533,0,0,0-1.532-1.532,1.277,1.277,0,1,1,0-2.553,1.533,1.533,0,0,0,1.532-1.532,1.277,1.277,0,0,1,2.553,0,1.533,1.533,0,0,0,1.532,1.532,1.277,1.277,0,1,1,0,2.553,1.533,1.533,0,0,0-1.532,1.532A1.277,1.277,0,0,1,385.981,89.906Z" transform="translate(-308.834)"/><path class="h" d="M445.745,219.517a1.277,1.277,0,0,1-1.277-1.277,1.534,1.534,0,0,0-1.532-1.532,1.277,1.277,0,1,1,0-2.553,1.534,1.534,0,0,0,1.532-1.532,1.277,1.277,0,0,1,2.553,0,1.533,1.533,0,0,0,1.532,1.532,1.277,1.277,0,1,1,0,2.553,1.533,1.533,0,0,0-1.532,1.532A1.277,1.277,0,0,1,445.745,219.517Z" transform="translate(-359.618 -92.009)"/><path class="j" d="M431.745,112.083a1.272,1.272,0,0,1-.9-.374l-2.808-2.808a1.276,1.276,0,0,1,0-1.805l2.808-2.808a1.277,1.277,0,0,1,1.805,0l2.808,2.808a1.276,1.276,0,0,1,0,1.805l-2.808,2.808A1.272,1.272,0,0,1,431.745,112.083Zm-1-4.085,1,1,1-1-1-1Z" transform="translate(-349.193 -16.515)"/><path class="j" d="M61.106,184.507a1.272,1.272,0,0,1-.9-.374L57.4,181.324a1.276,1.276,0,0,1,0-1.805l2.808-2.808a1.277,1.277,0,0,1,1.805,0l2.808,2.808a1.276,1.276,0,0,1,0,1.805l-2.808,2.808A1.273,1.273,0,0,1,61.106,184.507Zm-1-4.085,1,1,1-1-1-1Z" transform="translate(-42.463 -67.156)"/><circle class="n" cx="1.427" cy="1.427" r="1.427" transform="translate(69.393 124.606)"/><circle class="n" cx="1.427" cy="1.427" r="1.427" transform="translate(69.393 119.737)"/><circle class="n" cx="1.427" cy="1.427" r="1.427" transform="translate(69.393 114.867)"/></g></svg>