<svg xmlns="http://www.w3.org/2000/svg" width="201.469" height="201.469" viewBox="0 0 201.469 201.469"><defs><style>.a{fill:#20283c;}.b{fill:#e3e3e3;}</style></defs><path class="a" d="M163.693,201.469H37.775A37.773,37.773,0,0,1,0,163.693V37.775A37.773,37.773,0,0,1,37.775,0H163.693a37.773,37.773,0,0,1,37.775,37.775V163.693A37.773,37.773,0,0,1,163.693,201.469Z"/><path class="b" d="M37.184,13.333A25.184,25.184,0,1,0,62.367,38.517,25.209,25.209,0,0,0,37.184,13.333ZM50.7,35.129,36.585,49.818a4.2,4.2,0,0,1-5.861.189l-6.869-6.3a4.2,4.2,0,1,1,5.673-6.189l3.847,3.526L44.651,29.312a4.2,4.2,0,1,1,6.05,5.817Z" transform="translate(63.551 70.61)"/><path class="b" d="M96.143,8.667H20.592A12.6,12.6,0,0,0,8,21.259V88.417a12.6,12.6,0,0,0,12.592,12.592H96.143a12.6,12.6,0,0,0,12.592-12.592V21.259A12.6,12.6,0,0,0,96.143,8.667Zm0,83.943H20.592a4.2,4.2,0,0,1-4.2-4.2V29.651h83.943v58.76A4.193,4.193,0,0,1,96.143,92.61Z" transform="translate(42.367 45.9)"/></svg>