<svg xmlns="http://www.w3.org/2000/svg" xmlns:xlink="http://www.w3.org/1999/xlink" width="100" height="100" viewBox="0 0 100 100"><defs><style>.a{fill:url(#a);}.b,.o{fill:#2626bc;}.b{opacity:0.11;}.c{fill:#ffa8cf;}.d{fill:#ff7eb8;}.e{fill:#ffc4df;}.f{fill:#ffdbed;}.g{fill:#97ffd2;}.h{fill:#01eca5;}.i{fill:#6583fe;}.j{fill:#b7c5ff;}.k{fill:#d2deff;}.l{fill:#02ffb3;}.m{fill:#fff;}.n{fill:#8399fe;}</style><linearGradient id="a" x1="0.231" y1="0.821" x2="0.662" y2="0.293" gradientUnits="objectBoundingBox"><stop offset="0.011" stop-color="#dcfdee"/><stop offset="0.777" stop-color="#ccddfb"/><stop offset="1" stop-color="#c7d3ff"/></linearGradient></defs><g transform="translate(-13.599 0)"><path class="a" d="M18.662,26.31C22.782,15.039,30.535-4.513,47.068.941,53.5,3.064,55.525,11.129,62,12.134c6.111.949,11.284-4.737,17.1-5.816,7.222-1.34,14.865.453,17.609,7.125,3.283,7.983-6.394,16.941-4.054,24.231,3.859,12.024,18.123-7.9,20.674,11.5C116.892,76.328,85.1,124.666,63.69,84.916,52.831,64.76,41.451,78.9,24.524,68.869c-16.073-9.521-11.1-28.236-5.862-42.559Z" transform="translate(0 0)"/><path class="b" d="M118.1,160.963h-4.564V118.4a4.593,4.593,0,0,0-4.593-4.595h-3.462a9.671,9.671,0,0,0,.483-2.454A9.832,9.832,0,1,0,86.821,113.8H49.91a4.593,4.593,0,0,0-4.593,4.595v42.567H40.754A2.749,2.749,0,0,0,38,163.712v2.527a4.825,4.825,0,0,0,4.826,4.826h73.19a4.825,4.825,0,0,0,4.826-4.826v-2.527A2.749,2.749,0,0,0,118.1,160.963Z" transform="translate(-19.027 -85.331)"/><path class="c" d="M163.675,143.145v46.044a1.1,1.1,0,0,1-1.1,1.1H95.46V143.145a4.593,4.593,0,0,1,4.593-4.595h59.029A4.593,4.593,0,0,1,163.675,143.145Z" transform="translate(-67.016 -114.431)"/><path class="d" d="M301.152,139.39a9.831,9.831,0,0,1-15.233,7.552l-3.134,1.38a.776.776,0,0,1-1.023-1.023l1.38-3.134a9.793,9.793,0,0,1-1.629-5.615h19.656C301.176,138.825,301.169,139.108,301.152,139.39Z" transform="translate(-213.503 -111.828)"/><path class="e" d="M259.27,294.91v1.433a.661.661,0,0,1-.661.661h-1.187a.661.661,0,0,1-.661-.661V294.91a.661.661,0,0,1,.661-.661h1.187A.661.661,0,0,1,259.27,294.91Z" transform="translate(-193.087 -236.963)"/><path class="f" d="M280.52,285.91v3.417a.661.661,0,0,1-.661.661h-1.187a.661.661,0,0,1-.661-.661V285.91a.661.661,0,0,1,.661-.661h1.187A.661.661,0,0,1,280.52,285.91Z" transform="translate(-209.961 -229.85)"/><path class="e" d="M238.02,294.91v1.433a.661.661,0,0,1-.661.661h-1.187a.661.661,0,0,1-.661-.661V294.91a.661.661,0,0,1,.661-.661h1.187A.661.661,0,0,1,238.02,294.91Z" transform="translate(-176.213 -236.963)"/><path class="e" d="M216.77,294.91v1.433a.661.661,0,0,1-.661.661h-1.187a.661.661,0,0,1-.661-.661V294.91a.661.661,0,0,1,.661-.661h1.187A.661.661,0,0,1,216.77,294.91Z" transform="translate(-159.339 -236.963)"/><path class="d" d="M195.52,294.91v1.433a.661.661,0,0,1-.661.661h-1.187a.661.661,0,0,1-.661-.661V294.91a.661.661,0,0,1,.661-.661h1.187A.661.661,0,0,1,195.52,294.91Z" transform="translate(-142.465 -236.963)"/><path class="f" d="M301.77,279.91v4.739a.661.661,0,0,1-.661.661h-1.187a.661.661,0,0,1-.661-.661V279.91a.661.661,0,0,1,.661-.661h1.187A.661.661,0,0,1,301.77,279.91Z" transform="translate(-226.835 -225.106)"/><path class="f" d="M323.02,285.91v3.417a.661.661,0,0,1-.661.661h-1.187a.661.661,0,0,1-.661-.661V285.91a.661.661,0,0,1,.661-.661h1.187A.661.661,0,0,1,323.02,285.91Z" transform="translate(-243.709 -229.85)"/><path class="g" d="M344.27,270.91v6.723a.661.661,0,0,1-.661.661h-1.187a.661.661,0,0,1-.661-.661V270.91a.661.661,0,0,1,.661-.661h1.187A.661.661,0,0,1,344.27,270.91Z" transform="translate(-260.583 -217.986)"/><path class="h" d="M365.52,255.91v10.028a.661.661,0,0,1-.661.661h-1.187a.661.661,0,0,1-.661-.661V255.91a.661.661,0,0,1,.661-.661h1.187A.661.661,0,0,1,365.52,255.91Z" transform="translate(-277.457 -206.112)"/><path class="i" d="M163.678,327.7v8.954a1.1,1.1,0,0,1-1.1,1.1H95.463V327.7Z" transform="translate(-67.018 -264.5)"/><path class="j" d="M138.279,355.3v2.527a4.639,4.639,0,0,1-4.427,4.826H66.706a4.639,4.639,0,0,1-4.427-4.826V355.3a2.643,2.643,0,0,1,2.522-2.749H86.448a1,1,0,0,1,.893.585l1.326,2.721a1,1,0,0,0,.893.585H111a1,1,0,0,0,.893-.585l1.326-2.721a1,1,0,0,1,.893-.585h21.647A2.643,2.643,0,0,1,138.279,355.3Z" transform="translate(-37.952 -284.56)"/><path class="k" d="M409.63,355.3v2.528a4.826,4.826,0,0,1-4.826,4.826H401.56a4.826,4.826,0,0,0,4.826-4.826V355.3a2.749,2.749,0,0,0-2.75-2.748h3.244A2.749,2.749,0,0,1,409.63,355.3Z" transform="translate(-309.303 -284.562)"/><path class="l" d="M301.151,90.347a9.832,9.832,0,1,0-18.01,4.775l-1.38,3.135a.775.775,0,0,0,1.022,1.022l3.135-1.38a9.829,9.829,0,0,0,15.233-7.552Z" transform="translate(-213.502 -64.692)"/><circle class="m" cx="1.232" cy="1.232" r="1.232" transform="translate(72.707 23.154)"/><circle class="m" cx="1.232" cy="1.232" r="1.232" transform="translate(76.807 23.154)"/><circle class="m" cx="1.232" cy="1.232" r="1.232" transform="translate(80.907 23.154)"/><path class="f" d="M187.342,172.367H183.65a1.255,1.255,0,0,1,0-2.51h3.692a1.255,1.255,0,1,1,0,2.51Z" transform="translate(-134.125 -136.779)"/><path class="f" d="M205.193,193.58H183.65a1.255,1.255,0,0,1,0-2.51h21.543a1.255,1.255,0,0,1,0,2.51Z" transform="translate(-134.671 -153.861)"/><path class="d" d="M106.2,356.542h-9.55a1.1,1.1,0,0,1-1.1-1.1v-2.891H107.3v2.891A1.1,1.1,0,0,1,106.2,356.542Z" transform="translate(-65.187 -284.016)"/><path class="d" d="M362.106,356.542h-9.55a1.1,1.1,0,0,1-1.1-1.1v-2.891h11.754v2.891A1.1,1.1,0,0,1,362.106,356.542Z" transform="translate(-268.755 -284.016)"/><path class="f" d="M135.924,178.5H131.3a2.888,2.888,0,0,0,.234-1.144v-1.578h1.6a1.1,1.1,0,0,0,0-2.2h-1.6v-1.589a1.35,1.35,0,1,1,2.7,0,1.1,1.1,0,0,0,2.2,0,3.554,3.554,0,1,0-7.107,0v1.589h-.311a1.1,1.1,0,0,0,0,2.2h.311v1.578a.684.684,0,0,1-.2.488,1.675,1.675,0,0,0,1.185,2.86h5.614a1.1,1.1,0,0,0,0-2.2Z" transform="translate(-90.887 -136.05)"/><path class="n" d="M150.7,50.8h-.716v-.716a1.1,1.1,0,0,0-2.2,0V50.8h-.716a1.1,1.1,0,0,0,0,2.2h.716v.716a1.1,1.1,0,0,0,2.2,0V53h.716a1.1,1.1,0,0,0,0-2.2Z" transform="translate(-105.169 -38.188)"/><path class="d" d="M111.784,88.425a3.216,3.216,0,1,1,2.276-.941,3.208,3.208,0,0,1-2.276.941Zm0-4.231a1.014,1.014,0,1,0,.717.3A1.012,1.012,0,0,0,111.784,84.194Z" transform="translate(-75.465 -66.102)"/><path class="n" d="M429.819,271.086a3.217,3.217,0,1,1,2.276-.941,3.208,3.208,0,0,1-2.276.941Zm1.5-1.72h0Zm-1.5-2.51a1.014,1.014,0,1,0,.717.3,1.012,1.012,0,0,0-.717-.3Z" transform="translate(-328.827 -213.364)"/><path class="h" d="M200.08,431.013A3.218,3.218,0,1,1,203.3,427.8,3.222,3.222,0,0,1,200.08,431.013Zm0-4.232a1.014,1.014,0,1,0,1.014,1.014A1.016,1.016,0,0,0,200.08,426.781Z" transform="translate(-145.627 -343.844)"/><path class="d" d="M325.384,446.806h-.716v-.716a1.1,1.1,0,1,0-2.2,0v.716h-.716a1.1,1.1,0,0,0,0,2.2h.716v.716a1.1,1.1,0,1,0,2.2,0v-.716h.716a1.1,1.1,0,0,0,0-2.2Z" transform="translate(-243.963 -359.757)"/><g transform="translate(23.225 16.5)"><path class="o" d="M131.941,180.713h-3.183v-4.374a1.061,1.061,0,0,0-1.013-1.1H66.03V139.248a3.364,3.364,0,0,1,3.211-3.492H96.985a1.106,1.106,0,0,0,0-2.2H69.241a5.487,5.487,0,0,0-5.238,5.7v41.465H60.821a3.71,3.71,0,0,0-3.542,3.851v2.527a5.711,5.711,0,0,0,5.451,5.928h67.3a5.711,5.711,0,0,0,5.451-5.928v-2.527A3.71,3.71,0,0,0,131.941,180.713Zm-5.251,3.993h-8.783v-1.789h8.782Zm.041-7.265v3.272H110.244a2.007,2.007,0,0,0-1.79,1.17l-1.329,2.721H85.637l-1.329-2.721a2.007,2.007,0,0,0-1.79-1.17H66.03v-3.272h60.7Zm-51.9,7.265H66.047v-1.789h8.782Zm58.626,2.385a3.588,3.588,0,0,1-3.424,3.724H62.73a3.588,3.588,0,0,1-3.424-3.724v-2.527a1.587,1.587,0,0,1,1.515-1.648h3.2v1.789a2.123,2.123,0,0,0,2.027,2.2h8.782a2.123,2.123,0,0,0,2.027-2.2v-1.789h5.663l1.329,2.721a2.007,2.007,0,0,0,1.79,1.17h21.488a2.006,2.006,0,0,0,1.79-1.17l1.329-2.721h5.637v1.789a2.123,2.123,0,0,0,2.027,2.2h8.782a2.123,2.123,0,0,0,2.027-2.2v-1.789h3.225a1.587,1.587,0,0,1,1.515,1.648v2.526Z" transform="translate(-57.279 -120.62)"/><path class="o" d="M276.851,93.917a1.877,1.877,0,0,0,2.475,2.475l2.6-1.146a10.807,10.807,0,0,0,5.5,1.491c.318,0,.64-.014.961-.041a10.982,10.982,0,0,0,9.136-6.689h2.7A3.5,3.5,0,0,1,303.72,93.5v30.595a1.1,1.1,0,0,0,2.2,0V93.5a5.7,5.7,0,0,0-5.7-5.7h-2.042a10.779,10.779,0,0,0,.163-1.282A10.934,10.934,0,1,0,278,91.315Zm1.892-8.878a8.733,8.733,0,1,1,3.883,8.045,1.1,1.1,0,0,0-1.053-.09l-2.366,1.042,1.042-2.366a1.1,1.1,0,0,0-.09-1.053A8.671,8.671,0,0,1,278.742,85.039Z" transform="translate(-235.034 -74.871)"/><path class="o" d="M237.66,345.871h3.822a1.1,1.1,0,1,0,0-2.2H237.66a1.1,1.1,0,1,0,0,2.2Z" transform="translate(-200.469 -284.429)"/></g><path class="l" d="M166.815,216.882H139.035a1.1,1.1,0,0,1,0-2.2h27.781a1.1,1.1,0,0,0,.779-.323l10.848-10.848a3.283,3.283,0,0,1,2.337-.968h5.447a3.284,3.284,0,0,1,2.338.968l5.611,5.611a1.1,1.1,0,0,0,.779.323h6.73a1.1,1.1,0,1,1,0,2.2h-6.73a3.284,3.284,0,0,1-2.338-.968l-5.611-5.611a1.1,1.1,0,0,0-.779-.323H180.78a1.094,1.094,0,0,0-.779.323l-10.848,10.848A3.284,3.284,0,0,1,166.815,216.882Z" transform="translate(-103.775 -163.72)"/><path class="d" d="M139.034,192.141a1.1,1.1,0,0,1-.779-1.881l13.7-13.7a3.284,3.284,0,0,1,2.338-.968H165.51a1.1,1.1,0,0,0,.779-.323l2.927-2.927a3.284,3.284,0,0,1,2.338-.968h8.425a1.1,1.1,0,0,0,.779-.323l3.458-3.458a3.284,3.284,0,0,1,2.337-.968H201.37a1.1,1.1,0,0,0,.779-.323l6.525-6.525a1.1,1.1,0,0,1,1.558,1.558l-6.525,6.525a3.284,3.284,0,0,1-2.338.968H186.553a1.11,1.11,0,0,0-.779.323l-3.458,3.458a3.284,3.284,0,0,1-2.338.968h-8.425a1.1,1.1,0,0,0-.779.323l-2.927,2.927a3.284,3.284,0,0,1-2.338.968H154.3a1.1,1.1,0,0,0-.779.323l-13.7,13.7A1.1,1.1,0,0,1,139.034,192.141Z" transform="translate(-103.774 -129.939)"/></g></svg>