<svg xmlns="http://www.w3.org/2000/svg" width="100" height="100" viewBox="0 0 100 100"><defs><style>.a{fill:#efefef;}.b{fill:#e5e5e9;}.c{fill:#08a522;}.d{fill:#d3d1d7;}</style></defs><g transform="translate(-38.536)"><g transform="translate(41.894 3.372)"><path class="a" d="M146.7,39.076c-.058-2.519-.111-4.9-.111-7.2,0-1.8-1.739-3.264-3.886-3.264-16.619,0-29.273-4.013-39.82-12.628a4.429,4.429,0,0,0-5.417,0C86.915,24.6,74.265,28.613,57.647,28.613c-2.144,0-3.886,1.461-3.886,3.264,0,2.3-.053,4.681-.111,7.2-.532,23.433-1.262,55.528,45.249,69.071a4.551,4.551,0,0,0,1.271.18h0a4.523,4.523,0,0,0,1.269-.18c46.516-13.543,45.786-45.64,45.254-69.073Z" transform="translate(-53.531 -15.06)"/></g><path class="b" d="M257.264,108.149a4.284,4.284,0,0,1-1.234.18V15.06a4.085,4.085,0,0,1,2.631.925c10.254,8.615,22.556,12.628,38.713,12.628a3.548,3.548,0,0,1,3.778,3.264c0,2.3.052,4.679.108,7.2C301.776,62.509,302.486,94.605,257.264,108.149Z" transform="translate(-166.197 -11.688)"/><g transform="translate(38.536 0)"><path class="b" d="M138.418,27.122l0-.1c-.055-2.492-.108-4.847-.108-7.112,0-3.433-3.287-6.224-7.327-6.224-15.633,0-27.5-3.787-37.339-11.915a8.237,8.237,0,0,0-10.216,0C73.586,9.9,61.722,13.69,46.091,13.69c-4.039,0-7.327,2.791-7.327,6.224,0,2.314-.053,4.693-.11,7.21-.264,11.756-.593,26.388,5.186,39.669a50.378,50.378,0,0,0,14.3,18.863c7.191,5.939,16.607,10.649,27.989,14a8.476,8.476,0,0,0,2.4.344h0a8.448,8.448,0,0,0,2.4-.344c11.382-3.351,20.8-8.062,27.992-14a50.408,50.408,0,0,0,14.3-18.863c5.782-13.282,5.453-27.915,5.189-39.671ZM126.76,64.76c-6.094,14.006-18.552,23.611-38.088,29.362a.445.445,0,0,1-.136.021.5.5,0,0,1-.143-.021C68.862,88.37,56.407,78.766,50.31,64.762c-5.327-12.245-5.025-25.675-4.759-37.527.057-2.547.11-4.953.11-7.321a.4.4,0,0,1,.43-.365c17.541,0,30.932-4.314,42.144-13.575a.471.471,0,0,1,.3-.1h0a.476.476,0,0,1,.3.1c11.21,9.261,24.6,13.575,42.146,13.575a.4.4,0,0,1,.43.365c0,2.32.053,4.7.108,7.224l0,.1c.06,2.644.122,5.369.122,8.14,0,9.647-.743,19.875-4.883,29.387Z" transform="translate(-38.536)"/></g><path class="c" d="M199.048,159.264v13.407a2.239,2.239,0,0,1-2.239,2.239H184.882v11.929a2.24,2.24,0,0,1-2.239,2.239H169.236A2.24,2.24,0,0,1,167,186.839V174.91H155.068a2.239,2.239,0,0,1-2.239-2.239V159.264a2.239,2.239,0,0,1,2.239-2.239H167V145.1a2.24,2.24,0,0,1,2.239-2.239h13.407a2.24,2.24,0,0,1,2.239,2.239v11.929h11.927A2.239,2.239,0,0,1,199.048,159.264Z" transform="translate(-87.403 -117.721)"/><path class="c" d="M279.14,159.264v13.407a2.239,2.239,0,0,1-2.239,2.239H264.974v11.929a2.24,2.24,0,0,1-2.239,2.239h-6.7V142.857h6.7a2.24,2.24,0,0,1,2.239,2.239v11.929H276.9A2.239,2.239,0,0,1,279.14,159.264Z" transform="translate(-167.09 -117.721)"/><path class="d" d="M299.564,66.793a50.3,50.3,0,0,1-13.933,18.863c-7,5.939-16.179,10.649-27.266,14a8.031,8.031,0,0,1-2.336.344V94.143a.423.423,0,0,0,.132-.021c19.029-5.751,31.164-15.356,37.1-29.362,4.033-9.513,4.756-19.74,4.756-29.387,0-2.771-.06-5.5-.119-8.14l0-.1c-.054-2.521-.105-4.9-.105-7.224a.4.4,0,0,0-.419-.365c-17.088,0-30.134-4.314-41.053-13.575a.456.456,0,0,0-.291-.1V0A7.688,7.688,0,0,1,261,1.775C270.59,9.9,282.147,13.69,297.374,13.69c3.934,0,7.137,2.791,7.137,6.224,0,2.265.051,4.621.105,7.112l0,.1C304.876,38.878,305.2,53.511,299.564,66.793Z" transform="translate(-166.197)"/></g></svg>