<svg xmlns="http://www.w3.org/2000/svg" width="20" height="20" viewBox="0 0 20 20"><defs><style>.a{fill:#08a522;}</style></defs><path class="a" d="M10.781,5.391V9.676l2.844,2.844a.781.781,0,1,1-1.1,1.1L9.448,10.552A.781.781,0,0,1,9.219,10V5.391a.781.781,0,1,1,1.563,0ZM13.073,0H6.927A6.9,6.9,0,0,0,2.385,1.7V.781a.781.781,0,1,0-1.562,0V3.854a.783.783,0,0,0,.781.781H4.676a.781.781,0,1,0,0-1.562H3.2a5.383,5.383,0,0,1,3.729-1.51h6.146a5.371,5.371,0,0,1,5.365,5.365v6.146a5.371,5.371,0,0,1-5.365,5.365H6.927a5.371,5.371,0,0,1-5.365-5.365V10A.781.781,0,1,0,0,10v3.073A6.935,6.935,0,0,0,6.927,20h6.146A6.935,6.935,0,0,0,20,13.073V6.927A6.935,6.935,0,0,0,13.073,0Z"/></svg>