<svg xmlns="http://www.w3.org/2000/svg" width="53.188" height="53.188" viewBox="0 0 53.188 53.188"><defs><style>.a{fill:#b19046;}.b{fill:#e4c05c;}.c{fill:#f3d55b;}.d{fill:#f9eab0;}</style></defs><path class="a" d="M282.657,44.249c0,.335-.009.66-.028.985a27.1,27.1,0,0,1-.818,5.91c-.165.67-.359,1.33-.57,1.97a26.929,26.929,0,0,1-2.767,5.91c-.423.68-.882,1.34-1.36,1.97a24.176,24.176,0,0,1-19.276,9.85c-.616,0-1.232-.02-1.838-.079V17.734c.607-.059,1.223-.079,1.838-.079a24.176,24.176,0,0,1,19.276,9.85q.726.947,1.36,1.97a26.927,26.927,0,0,1,2.767,5.91c.211.64.4,1.3.57,1.97a27.1,27.1,0,0,1,.818,5.91C282.648,43.589,282.657,43.914,282.657,44.249Z" transform="translate(-229.469 -17.655)"/><g transform="translate(38.995 10.967)"><path class="b" d="M389.191,107.769H380.5a.919.919,0,1,1,0-1.839h7.326A22.608,22.608,0,0,1,389.191,107.769Z" transform="translate(-379.181 -105.93)"/><path class="b" d="M389.191,388.413c-.423.634-.882,1.25-1.36,1.838H380.5a.919.919,0,0,1,0-1.839h8.687Z" transform="translate(-379.181 -358.998)"/><path class="b" d="M389.049,178.389H376.621a.919.919,0,0,1,0-1.839h11.858C388.69,177.149,388.883,177.764,389.049,178.389Z" transform="translate(-375.702 -169.197)"/><path class="b" d="M440.429,248.091c0,.313-.009.616-.028.919h-7.372a.919.919,0,1,1,0-1.839H440.4C440.42,247.475,440.429,247.779,440.429,248.091Z" transform="translate(-426.236 -232.465)"/><path class="b" d="M389.049,317.792c-.165.625-.358,1.241-.57,1.838H376.621a.919.919,0,0,1,0-1.839h12.428Z" transform="translate(-375.702 -295.731)"/></g><ellipse class="c" cx="24.756" cy="26.594" rx="24.756" ry="26.594" transform="translate(0 0)"/><path class="b" d="M88.086,126.757c-9.646,0-17.465-8.614-17.465-19.24s7.819-19.24,17.465-19.24,17.465,8.614,17.465,19.24S97.727,126.744,88.086,126.757Z" transform="translate(-63.267 -80.922)"/><g transform="translate(2.757 2.752)"><path class="d" d="M230.436,45.929a.968.968,0,0,1-.653-.267.948.948,0,0,1-.267-.653.918.918,0,0,1,.073-.35,1.06,1.06,0,0,1,.193-.3.919.919,0,0,1,1.572.653,1.4,1.4,0,0,1-.018.184.6.6,0,0,1-.055.166.7.7,0,0,1-.083.166l-.11.138A.967.967,0,0,1,230.436,45.929Z" transform="translate(-208.438 -44.085)"/><path class="d" d="M230.436,452a.968.968,0,0,1-.653-.267.948.948,0,0,1-.267-.653.918.918,0,0,1,.073-.35,1.06,1.06,0,0,1,.193-.3.919.919,0,0,1,1.572.653,1.4,1.4,0,0,1-.018.184.6.6,0,0,1-.055.166.7.7,0,0,1-.083.166l-.11.138A.967.967,0,0,1,230.436,452Z" transform="translate(-208.438 -404.32)"/><path class="d" d="M177.911,52.922a.993.993,0,0,1-.359-.064.941.941,0,0,1-.294-.2.921.921,0,0,1,0-1.3.807.807,0,0,1,.294-.2.936.936,0,0,1,1,.2.9.9,0,0,1,0,1.3A.889.889,0,0,1,177.911,52.922Z" transform="translate(-161.366 -50.361)"/><path class="d" d="M282.957,445.256a.956.956,0,0,1-.653-.276.921.921,0,0,1,0-1.3.962.962,0,0,1,1.305,0,.514.514,0,0,1,.11.138,1.481,1.481,0,0,1,.092.156,1.193,1.193,0,0,1,.046.175.623.623,0,0,1,.018.184.889.889,0,0,1-.267.644.761.761,0,0,1-.3.2A.906.906,0,0,1,282.957,445.256Z" transform="translate(-255.506 -398.295)"/><path class="d" d="M128.919,73.16a.9.9,0,0,1-.35-.064,1.164,1.164,0,0,1-.3-.2,1.4,1.4,0,0,1-.11-.138.7.7,0,0,1-.083-.165.584.584,0,0,1-.055-.166,1.213,1.213,0,0,1-.018-.184.917.917,0,0,1,.073-.349.831.831,0,0,1,.5-.5.882.882,0,0,1,.533-.055.6.6,0,0,1,.166.055.7.7,0,0,1,.166.083l.138.11a1.07,1.07,0,0,1,.193.3.77.77,0,0,1,.074.349,1.265,1.265,0,0,1-.018.184.6.6,0,0,1-.055.166.7.7,0,0,1-.083.165l-.11.138a1.535,1.535,0,0,1-.138.11,1.452,1.452,0,0,1-.166.092,1.14,1.14,0,0,1-.166.046A.635.635,0,0,1,128.919,73.16Z" transform="translate(-117.46 -68.485)"/><path class="d" d="M331.954,424.868a.911.911,0,0,1-.846-1.268.853.853,0,0,1,.193-.3.917.917,0,0,1,1-.193,1.051,1.051,0,0,1,.3.193.932.932,0,0,1,0,1.305,1.063,1.063,0,0,1-.3.193A.92.92,0,0,1,331.954,424.868Z" transform="translate(-299.416 -380.021)"/><path class="d" d="M86.89,105.4a.918.918,0,0,1-.653-.276.6.6,0,0,1-.119-.138c-.028-.046-.055-.1-.083-.157a.972.972,0,0,1-.046-.175.568.568,0,0,1-.018-.175.981.981,0,0,1,.065-.359.912.912,0,0,1,1.5-.294.8.8,0,0,1,.2.294,1,1,0,0,1,.074.359,1.093,1.093,0,0,1-.018.175c-.018.065-.037.12-.055.175s-.055.11-.083.157a.6.6,0,0,1-.119.138.8.8,0,0,1-.294.2A.908.908,0,0,1,86.89,105.4Z" transform="translate(-79.776 -97.356)"/><path class="d" d="M373.971,392.612a.91.91,0,0,1-.349-.064.93.93,0,0,1-.294-.2.9.9,0,0,1-.276-.653.917.917,0,0,1,.074-.349.984.984,0,0,1,.5-.5.937.937,0,0,1,1,.2.888.888,0,0,1,.267.643.91.91,0,0,1-.267.653A.894.894,0,0,1,373.971,392.612Z" transform="translate(-337.09 -351.129)"/><path class="d" d="M54.588,147.469a.917.917,0,0,1-.349-.074,1.07,1.07,0,0,1-.3-.193l-.11-.138a.7.7,0,0,1-.083-.166.6.6,0,0,1-.055-.166,1.294,1.294,0,0,1-.018-.184.968.968,0,0,1,.267-.653,1.064,1.064,0,0,1,.3-.193.844.844,0,0,1,.7,0,.864.864,0,0,1,.3.193.967.967,0,0,1,.266.653.95.95,0,0,1-.266.653.868.868,0,0,1-.3.193A.916.916,0,0,1,54.588,147.469Z" transform="translate(-50.838 -134.166)"/><path class="d" d="M406.433,350.68a.91.91,0,1,1,.653-.266A.968.968,0,0,1,406.433,350.68Z" transform="translate(-366.187 -314.46)"/><path class="d" d="M34.366,196.483a.9.9,0,0,1-.644-.276.889.889,0,0,1-.266-.644.993.993,0,0,1,.064-.359.807.807,0,0,1,.2-.294.413.413,0,0,1,.138-.11.876.876,0,0,1,.156-.092.963.963,0,0,1,.175-.046.911.911,0,0,1,1.094.9.565.565,0,0,1-.018.175.945.945,0,0,1-.046.175c-.028.055-.055.11-.083.156a.583.583,0,0,1-.119.138A.919.919,0,0,1,34.366,196.483Z" transform="translate(-32.73 -177.65)"/><path class="d" d="M426.583,301.651a.91.91,0,0,1-.919-.919.888.888,0,0,1,.267-.643.932.932,0,0,1,1.3,0,.9.9,0,0,1,.276.643.919.919,0,0,1-.276.653A.89.89,0,0,1,426.583,301.651Z" transform="translate(-384.223 -270.961)"/><path class="d" d="M27.4,249.05a.919.919,0,0,1-.35-.074,1.07,1.07,0,0,1-.3-.193.952.952,0,0,1-.193-.3.871.871,0,0,1,0-.7.835.835,0,0,1,.5-.5.924.924,0,0,1,.7,0,.831.831,0,0,1,.5.5.866.866,0,0,1,0,.7.961.961,0,0,1-.193.3,1.07,1.07,0,0,1-.3.193A.921.921,0,0,1,27.4,249.05Z" transform="translate(-26.481 -224.288)"/><path class="d" d="M433.622,249.163a.91.91,0,1,1,.653-.266A.968.968,0,0,1,433.622,249.163Z" transform="translate(-390.545 -224.401)"/><path class="d" d="M34.366,301.554a.909.909,0,0,1-.91-.919.926.926,0,0,1,.266-.653.906.906,0,0,1,.138-.11.846.846,0,0,1,.156-.083,1,1,0,0,1,.175-.055.943.943,0,0,1,.827.248.927.927,0,0,1,.119.147c.028.046.055.1.083.156a.962.962,0,0,1,.046.175.567.567,0,0,1,.018.175.91.91,0,0,1-.919.919Z" transform="translate(-32.73 -270.864)"/><path class="d" d="M426.582,196.583a.919.919,0,0,1-.653-.276.89.89,0,0,1-.267-.644.91.91,0,0,1,.267-.653.951.951,0,0,1,1.3,0,.918.918,0,0,1,.276.653.942.942,0,0,1-.919.919Z" transform="translate(-384.222 -177.75)"/><path class="d" d="M54.588,350.567a.917.917,0,0,1-.349-.074,1.07,1.07,0,0,1-.3-.193.932.932,0,0,1,0-1.305,1.064,1.064,0,0,1,.3-.193.923.923,0,0,1,.7,0,.862.862,0,0,1,.3.193.933.933,0,0,1,0,1.305.867.867,0,0,1-.3.193A.919.919,0,0,1,54.588,350.567Z" transform="translate(-50.838 -314.347)"/><path class="d" d="M406.433,147.645a.91.91,0,1,1,.653-.266A.967.967,0,0,1,406.433,147.645Z" transform="translate(-366.187 -134.341)"/><path class="d" d="M86.9,392.543a.624.624,0,0,1-.184-.018,1.188,1.188,0,0,1-.175-.046c-.055-.028-.1-.055-.156-.083a.833.833,0,0,1-.138-.119.929.929,0,0,1-.2-.294.981.981,0,0,1-.065-.359.9.9,0,0,1,.065-.349.928.928,0,0,1,.2-.294.858.858,0,0,1,.138-.12c.055-.027.1-.055.156-.083s.12-.037.175-.055a.877.877,0,0,1,.533.055.979.979,0,0,1,.5.5.909.909,0,0,1,.074.349.957.957,0,0,1-.074.359.8.8,0,0,1-.2.294.937.937,0,0,1-.294.2A.905.905,0,0,1,86.9,392.543Z" transform="translate(-79.782 -351.06)"/><path class="d" d="M373.971,105.406a.909.909,0,0,1-.349-.074.979.979,0,0,1-.5-.5.917.917,0,0,1-.074-.349.919.919,0,1,1,1.838,0,.889.889,0,0,1-.267.644A.9.9,0,0,1,373.971,105.406Z" transform="translate(-337.09 -97.367)"/><path class="d" d="M128.92,424.85a.92.92,0,0,1-.35-.074.942.942,0,0,1-.3-.193.873.873,0,0,1-.11-.147.509.509,0,0,1-.083-.156.554.554,0,0,1-.055-.175,1.092,1.092,0,0,1-.018-.175.966.966,0,0,1,.267-.653,1.048,1.048,0,0,1,.3-.193.878.878,0,0,1,.533-.055.571.571,0,0,1,.166.055.7.7,0,0,1,.166.083,1.483,1.483,0,0,1,.138.111.861.861,0,0,1,.193.3.77.77,0,0,1,.074.349,1.144,1.144,0,0,1-.018.175.57.57,0,0,1-.055.175.509.509,0,0,1-.083.156c-.036.055-.073.1-.11.147l-.138.11a.693.693,0,0,1-.166.083.6.6,0,0,1-.166.055A1.254,1.254,0,0,1,128.92,424.85Z" transform="translate(-117.461 -380.003)"/><path class="d" d="M331.951,73.226a.771.771,0,0,1-.35-.073.883.883,0,0,1-.57-.846.916.916,0,0,1,.073-.349,1.064,1.064,0,0,1,.193-.3.953.953,0,0,1,1-.193,1.07,1.07,0,0,1,.3.193.933.933,0,0,1,0,1.306.96.96,0,0,1-.3.193A.768.768,0,0,1,331.951,73.226Z" transform="translate(-299.414 -68.551)"/><path class="d" d="M177.909,445.161a.918.918,0,0,1-.653-.276,1.126,1.126,0,0,1-.2-.294.907.907,0,0,1-.064-.349.992.992,0,0,1,.064-.359,1.118,1.118,0,0,1,.2-.294.918.918,0,0,1,.827-.248.981.981,0,0,1,.175.046c.055.027.11.055.156.083a.592.592,0,0,1,.138.119.808.808,0,0,1,.2.294,1,1,0,0,1,.074.359.909.909,0,0,1-.074.349.809.809,0,0,1-.2.294.6.6,0,0,1-.138.119c-.046.027-.1.055-.156.083s-.11.037-.175.055A1.1,1.1,0,0,1,177.909,445.161Z" transform="translate(-161.364 -398.2)"/><path class="d" d="M282.957,52.978a.909.909,0,0,1-.349-.064,1.105,1.105,0,0,1-.3-.2.921.921,0,0,1,0-1.3.944.944,0,0,1,1.305,0,.89.89,0,0,1,.267.644.91.91,0,0,1-.267.653.88.88,0,0,1-.3.2A.909.909,0,0,1,282.957,52.978Z" transform="translate(-255.506 -50.417)"/><path class="d" d="M160.18,157.233v-2.758H156.5v2.758h-3.677v-2.758h-2.758V150.8h2.758v-4.6h-2.758v-3.677h2.758v-3.677h-2.758v-3.677h2.758v-2.758H156.5v2.758h3.677v-2.758h3.677v2.834a5.524,5.524,0,0,1,4.6,5.438,5.465,5.465,0,0,1-1.133,3.317,5.967,5.967,0,0,1-3.463,10.453v2.775ZM163.4,150.8a2.3,2.3,0,1,0,0-4.6H156.5v4.6Zm-.46-8.273a1.838,1.838,0,1,0,0-3.677H156.5v3.677Z" transform="translate(-137.265 -121.526)"/></g></svg>