<svg xmlns="http://www.w3.org/2000/svg" width="53.19" height="53.19" viewBox="0 0 53.19 53.19"><defs><style>.a{fill:#f0cd00;}.b{fill:#ffde50;}.c{fill:#ffea94;}.d{fill:#faa300;}.e{fill:#ffbd00;}.f{fill:#f68e00;}</style></defs><path class="a" d="M53.19,26.595A26.643,26.643,0,1,1,44.6,7.023,26.595,26.595,0,0,1,53.19,26.595Z"/><path class="b" d="M69.464,26.747A26.6,26.6,0,0,1,43.852,53.323a26.595,26.595,0,0,1,0-53.153A26.6,26.6,0,0,1,69.464,26.747Z" transform="translate(-16.274 -0.152)"/><path class="c" d="M75.679,37.127,37.117,75.689a27.41,27.41,0,0,1-3.457-4.662L71.019,33.67A27.283,27.283,0,0,1,75.679,37.127Z" transform="translate(-30.031 -30.04)"/><path class="c" d="M134.324,100.078l-34.247,34.247a26.376,26.376,0,0,1-6.687-3.842L130.483,93.39A26.328,26.328,0,0,1,134.324,100.078Z" transform="translate(-82.956 -82.956)"/><path class="d" d="M96.034,75.327a20.706,20.706,0,0,1-41.411.255c0-.085,0-.17,0-.255A20.707,20.707,0,0,1,75.327,54.62c.085,0,.171,0,.256,0A20.61,20.61,0,0,1,87.255,58.4a20.845,20.845,0,0,1,5.7,6.068A20.607,20.607,0,0,1,96.034,75.327Z" transform="translate(-48.732 -48.732)"/><path class="e" d="M89.655,60.631,60.631,89.655A20.449,20.449,0,0,1,54.622,75.4c0-.084,0-.168,0-.252A20.523,20.523,0,0,1,75.144,54.62c.084,0,.169,0,.253,0a20.428,20.428,0,0,1,11.569,3.743A20.712,20.712,0,0,1,89.655,60.631Z" transform="translate(-48.732 -48.732)"/><path class="f" d="M255.928,75.327A20.616,20.616,0,0,1,235.4,96.034q-.584,0-1.159-.033a20.719,20.719,0,0,0,0-41.348q.576-.033,1.159-.033A20.616,20.616,0,0,1,255.928,75.327Z" transform="translate(-208.626 -48.732)"/><path class="f" d="M93.591,126.845h0a2.176,2.176,0,0,1,0-2.144l.02-.036a2.685,2.685,0,0,1,2.333-1.348,6.085,6.085,0,0,0,5.365-3.3,6.365,6.365,0,0,0-2.33-8.222,6.059,6.059,0,0,0-8.349,2.252,6.24,6.24,0,0,0,0,6.177,2.736,2.736,0,0,1,.012,2.7h0a2.166,2.166,0,0,1-1.881,1.1h-.114a2.195,2.195,0,0,1-1.929-1.19,6.083,6.083,0,0,0-5.6-3.248,6.285,6.285,0,0,0-5.868,6.154,6.087,6.087,0,0,0,11.5,2.9,2.111,2.111,0,0,1,1.868-1.146h.184a2.1,2.1,0,0,1,1.829,1.074h0a2.174,2.174,0,0,1-.059,2.22A6.136,6.136,0,1,0,101,131.01a6.08,6.08,0,0,0-5.486-3.085A2.129,2.129,0,0,1,93.591,126.845Z" transform="translate(-67.021 -99.001)"/><path class="c" d="M118.593,126.845h0a2.176,2.176,0,0,1,0-2.144l.02-.036a2.685,2.685,0,0,1,2.333-1.348,6.085,6.085,0,0,0,5.365-3.3,6.365,6.365,0,0,0-2.33-8.222,6.059,6.059,0,0,0-8.349,2.252,6.24,6.24,0,0,0,0,6.177,2.736,2.736,0,0,1,.012,2.7h0a2.166,2.166,0,0,1-1.881,1.1h-.114a2.195,2.195,0,0,1-1.929-1.19,6.083,6.083,0,0,0-5.6-3.248,6.285,6.285,0,0,0-5.868,6.154,6.087,6.087,0,0,0,11.5,2.9,2.111,2.111,0,0,1,1.868-1.146h.184a2.1,2.1,0,0,1,1.829,1.074h0a2.174,2.174,0,0,1-.059,2.22,6.136,6.136,0,1,0,10.439.211,6.08,6.08,0,0,0-5.486-3.085A2.129,2.129,0,0,1,118.593,126.845Z" transform="translate(-89.29 -99.001)"/></svg>