<svg xmlns="http://www.w3.org/2000/svg" width="53.192" height="53.192" viewBox="0 0 53.192 53.192"><defs><style>.a{fill:#08a522;}.b{fill:#fff;}.c{fill:#64cb68;}</style></defs><path class="a" d="M281.414,44.251c0,.335-.009.66-.026.985a28.347,28.347,0,0,1-.78,5.91c-.158.67-.342,1.33-.543,1.97a27.551,27.551,0,0,1-2.638,5.91c-.4.68-.841,1.34-1.3,1.97a22.723,22.723,0,0,1-18.377,9.85A17.3,17.3,0,0,1,256,70.769V17.734a17.264,17.264,0,0,1,1.753-.079,22.722,22.722,0,0,1,18.377,9.85q.692.948,1.3,1.97a27.549,27.549,0,0,1,2.638,5.91c.2.64.386,1.3.543,1.97a28.349,28.349,0,0,1,.78,5.91C281.406,43.591,281.414,43.916,281.414,44.251Z" transform="translate(-228.222 -17.655)"/><g transform="translate(39.661 11.698)"><path class="b" d="M388.743,107.683h-8.282a.876.876,0,0,1,0-1.753h6.985A21.566,21.566,0,0,1,388.743,107.683Z" transform="translate(-379.2 -105.93)"/><path class="b" d="M388.743,388.413c-.4.6-.841,1.192-1.3,1.753h-6.985a.876.876,0,0,1,0-1.753h8.282Z" transform="translate(-379.2 -360.369)"/><path class="b" d="M388.427,178.3H376.578a.876.876,0,1,1,0-1.753h11.305C388.085,177.121,388.269,177.708,388.427,178.3Z" transform="translate(-375.702 -169.54)"/><path class="b" d="M440.041,248.048c0,.3-.009.587-.026.876h-7.028a.876.876,0,1,1,0-1.753h7.028C440.032,247.461,440.041,247.75,440.041,248.048Z" transform="translate(-426.51 -233.15)"/><path class="b" d="M388.427,317.792c-.158.6-.342,1.183-.543,1.753H376.578a.876.876,0,0,1,0-1.753h11.848Z" transform="translate(-375.702 -296.759)"/></g><ellipse class="c" cx="24.843" cy="26.596" rx="24.843" ry="26.596" transform="translate(0 0)"/><path class="b" d="M87.272,127.446c-9.2,0-16.651-8.769-16.651-19.585s7.455-19.585,16.651-19.585,16.651,8.769,16.651,19.585S96.464,127.434,87.272,127.446Z" transform="translate(-63.61 -81.265)"/><g transform="translate(2.629 2.624)"><path class="a" d="M230.393,45.843a.923.923,0,0,1-.622-.254.9.9,0,0,1-.254-.622.875.875,0,0,1,.07-.333,1.01,1.01,0,0,1,.184-.289.876.876,0,0,1,1.5.622,1.325,1.325,0,0,1-.018.175.574.574,0,0,1-.053.158.668.668,0,0,1-.079.158l-.1.131A.922.922,0,0,1,230.393,45.843Z" transform="translate(-208.179 -44.085)"/><path class="a" d="M230.393,451.912a.923.923,0,0,1-.622-.254.9.9,0,0,1-.254-.622.875.875,0,0,1,.07-.333,1.01,1.01,0,0,1,.184-.289.876.876,0,0,1,1.5.622,1.325,1.325,0,0,1-.018.175.573.573,0,0,1-.053.158.668.668,0,0,1-.079.158l-.1.131A.922.922,0,0,1,230.393,451.912Z" transform="translate(-208.179 -403.973)"/><path class="a" d="M177.868,52.836a.946.946,0,0,1-.342-.061.9.9,0,0,1-.28-.193.878.878,0,0,1,0-1.236.77.77,0,0,1,.28-.193.892.892,0,0,1,.956.192.858.858,0,0,1,0,1.236A.848.848,0,0,1,177.868,52.836Z" transform="translate(-161.174 -50.395)"/><path class="a" d="M282.914,445.171a.911.911,0,0,1-.622-.263.878.878,0,0,1,0-1.236.917.917,0,0,1,1.244,0,.49.49,0,0,1,.105.131,1.406,1.406,0,0,1,.088.149,1.142,1.142,0,0,1,.044.167.594.594,0,0,1,.018.175.848.848,0,0,1-.254.614.726.726,0,0,1-.289.193A.863.863,0,0,1,282.914,445.171Z" transform="translate(-255.18 -397.915)"/><path class="a" d="M128.876,73.074a.861.861,0,0,1-.333-.061,1.11,1.11,0,0,1-.289-.193,1.332,1.332,0,0,1-.105-.132.664.664,0,0,1-.079-.157.558.558,0,0,1-.052-.158A1.156,1.156,0,0,1,128,72.2a.874.874,0,0,1,.07-.333.792.792,0,0,1,.473-.473.841.841,0,0,1,.508-.053.573.573,0,0,1,.158.053.669.669,0,0,1,.158.079l.131.1a1.02,1.02,0,0,1,.184.289.734.734,0,0,1,.07.333,1.207,1.207,0,0,1-.018.175.574.574,0,0,1-.053.158.664.664,0,0,1-.079.157l-.1.132a1.462,1.462,0,0,1-.131.1,1.383,1.383,0,0,1-.158.088,1.087,1.087,0,0,1-.158.044A.605.605,0,0,1,128.876,73.074Z" transform="translate(-117.331 -68.618)"/><path class="a" d="M331.911,424.782a.868.868,0,0,1-.807-1.209.813.813,0,0,1,.184-.289.874.874,0,0,1,.955-.184,1,1,0,0,1,.289.184.889.889,0,0,1,0,1.244,1.013,1.013,0,0,1-.289.184A.877.877,0,0,1,331.911,424.782Z" transform="translate(-299.027 -379.542)"/><path class="a" d="M86.847,105.309a.876.876,0,0,1-.622-.263.573.573,0,0,1-.114-.131c-.027-.044-.053-.1-.079-.149a.927.927,0,0,1-.044-.166.541.541,0,0,1-.018-.166.935.935,0,0,1,.062-.342.869.869,0,0,1,1.428-.28.763.763,0,0,1,.193.28.951.951,0,0,1,.07.342,1.043,1.043,0,0,1-.018.166c-.018.062-.035.114-.053.166s-.053.105-.079.149a.571.571,0,0,1-.114.131.764.764,0,0,1-.281.193A.865.865,0,0,1,86.847,105.309Z" transform="translate(-80.064 -97.645)"/><path class="a" d="M373.928,392.526a.869.869,0,0,1-.333-.061.886.886,0,0,1-.28-.193.859.859,0,0,1-.263-.622.874.874,0,0,1,.07-.333.938.938,0,0,1,.473-.473.894.894,0,0,1,.955.193.847.847,0,0,1,.254.613.868.868,0,0,1-.254.622A.853.853,0,0,1,373.928,392.526Z" transform="translate(-336.283 -350.494)"/><path class="a" d="M54.545,147.383a.874.874,0,0,1-.333-.07,1.02,1.02,0,0,1-.289-.184l-.1-.131a.665.665,0,0,1-.079-.158.571.571,0,0,1-.053-.158,1.233,1.233,0,0,1-.018-.175.923.923,0,0,1,.254-.622,1.015,1.015,0,0,1,.289-.184.8.8,0,0,1,.666,0,.824.824,0,0,1,.289.184.922.922,0,0,1,.254.622.906.906,0,0,1-.254.622.827.827,0,0,1-.289.184A.874.874,0,0,1,54.545,147.383Z" transform="translate(-50.97 -134.079)"/><path class="a" d="M406.391,350.595a.868.868,0,1,1,.622-.254A.923.923,0,0,1,406.391,350.595Z" transform="translate(-365.538 -314.2)"/><path class="a" d="M34.324,196.4a.856.856,0,0,1-.614-.263.847.847,0,0,1-.254-.614.946.946,0,0,1,.061-.342.769.769,0,0,1,.193-.28.394.394,0,0,1,.132-.105.835.835,0,0,1,.149-.088.918.918,0,0,1,.166-.044.868.868,0,0,1,1.043.859.538.538,0,0,1-.018.167.9.9,0,0,1-.044.166c-.027.053-.053.105-.079.149a.557.557,0,0,1-.114.132A.876.876,0,0,1,34.324,196.4Z" transform="translate(-32.764 -177.522)"/><path class="a" d="M426.54,301.566a.868.868,0,0,1-.876-.876.847.847,0,0,1,.254-.613.888.888,0,0,1,1.236,0,.855.855,0,0,1,.263.613.876.876,0,0,1-.263.622A.848.848,0,0,1,426.54,301.566Z" transform="translate(-383.671 -270.743)"/><path class="a" d="M27.358,248.964a.877.877,0,0,1-.333-.07,1.02,1.02,0,0,1-.289-.184.908.908,0,0,1-.184-.289.83.83,0,0,1,0-.666.8.8,0,0,1,.473-.473.88.88,0,0,1,.666,0,.793.793,0,0,1,.473.473.825.825,0,0,1,0,.666.916.916,0,0,1-.184.289,1.02,1.02,0,0,1-.289.184A.878.878,0,0,1,27.358,248.964Z" transform="translate(-26.481 -224.115)"/><path class="a" d="M433.58,249.078a.868.868,0,1,1,.622-.254A.923.923,0,0,1,433.58,249.078Z" transform="translate(-390.028 -224.228)"/><path class="a" d="M34.324,301.468a.867.867,0,0,1-.867-.876.883.883,0,0,1,.254-.622.863.863,0,0,1,.132-.105.807.807,0,0,1,.149-.079.948.948,0,0,1,.166-.053.9.9,0,0,1,.789.237.883.883,0,0,1,.114.14c.027.044.053.1.079.149a.917.917,0,0,1,.044.166.541.541,0,0,1,.018.166.868.868,0,0,1-.876.876Z" transform="translate(-32.764 -270.646)"/><path class="a" d="M426.539,196.5a.876.876,0,0,1-.622-.263.848.848,0,0,1-.254-.614.867.867,0,0,1,.254-.622.906.906,0,0,1,1.236,0,.876.876,0,0,1,.263.622.9.9,0,0,1-.876.876Z" transform="translate(-383.67 -177.621)"/><path class="a" d="M54.545,350.481a.874.874,0,0,1-.333-.07,1.02,1.02,0,0,1-.289-.184.888.888,0,0,1,0-1.244,1.014,1.014,0,0,1,.289-.184.881.881,0,0,1,.666,0,.822.822,0,0,1,.289.184.89.89,0,0,1,0,1.244.828.828,0,0,1-.289.184A.876.876,0,0,1,54.545,350.481Z" transform="translate(-50.969 -314.087)"/><path class="a" d="M406.391,147.56a.868.868,0,1,1,.622-.254A.922.922,0,0,1,406.391,147.56Z" transform="translate(-365.538 -134.254)"/><path class="a" d="M86.854,392.457a.594.594,0,0,1-.175-.018,1.135,1.135,0,0,1-.167-.044c-.052-.026-.1-.053-.149-.079a.793.793,0,0,1-.131-.114.886.886,0,0,1-.193-.28.936.936,0,0,1-.062-.342.859.859,0,0,1,.062-.333.885.885,0,0,1,.193-.28.819.819,0,0,1,.131-.114c.053-.026.1-.053.149-.079l.167-.053a.836.836,0,0,1,.508.053.934.934,0,0,1,.473.473.867.867,0,0,1,.07.333.913.913,0,0,1-.07.342.759.759,0,0,1-.193.28.893.893,0,0,1-.281.193A.864.864,0,0,1,86.854,392.457Z" transform="translate(-80.071 -350.425)"/><path class="a" d="M373.928,105.32a.867.867,0,0,1-.333-.07.934.934,0,0,1-.473-.473.875.875,0,0,1-.07-.333.876.876,0,1,1,1.753,0,.848.848,0,0,1-.254.614A.861.861,0,0,1,373.928,105.32Z" transform="translate(-336.283 -97.656)"/><path class="a" d="M128.877,424.764a.876.876,0,0,1-.333-.07.9.9,0,0,1-.289-.184.832.832,0,0,1-.105-.14.486.486,0,0,1-.079-.149.528.528,0,0,1-.052-.166,1.04,1.04,0,0,1-.018-.166.921.921,0,0,1,.254-.622,1,1,0,0,1,.289-.184.838.838,0,0,1,.508-.053.546.546,0,0,1,.158.053.661.661,0,0,1,.158.079,1.41,1.41,0,0,1,.131.105.821.821,0,0,1,.184.289.734.734,0,0,1,.07.333,1.089,1.089,0,0,1-.018.166.543.543,0,0,1-.053.166.486.486,0,0,1-.079.149c-.035.053-.07.1-.1.14l-.131.105a.661.661,0,0,1-.158.079.573.573,0,0,1-.158.053A1.2,1.2,0,0,1,128.877,424.764Z" transform="translate(-117.332 -379.524)"/><path class="a" d="M331.908,73.14a.735.735,0,0,1-.333-.07.842.842,0,0,1-.543-.807.875.875,0,0,1,.07-.333,1.014,1.014,0,0,1,.184-.289.909.909,0,0,1,.955-.184,1.02,1.02,0,0,1,.289.184.889.889,0,0,1,0,1.245.915.915,0,0,1-.289.184A.733.733,0,0,1,331.908,73.14Z" transform="translate(-299.025 -68.684)"/><path class="a" d="M177.866,445.075a.876.876,0,0,1-.622-.263,1.074,1.074,0,0,1-.193-.281.864.864,0,0,1-.061-.333.946.946,0,0,1,.061-.342,1.067,1.067,0,0,1,.193-.28.875.875,0,0,1,.789-.237.935.935,0,0,1,.166.044c.053.026.105.052.149.079a.565.565,0,0,1,.132.114.77.77,0,0,1,.193.28.95.95,0,0,1,.07.342.866.866,0,0,1-.07.333.771.771,0,0,1-.193.281.57.57,0,0,1-.132.114c-.044.026-.1.053-.149.079s-.1.035-.166.053A1.053,1.053,0,0,1,177.866,445.075Z" transform="translate(-161.172 -397.82)"/><path class="a" d="M282.914,52.893a.867.867,0,0,1-.333-.061,1.054,1.054,0,0,1-.289-.193.878.878,0,0,1,0-1.236.9.9,0,0,1,1.244,0,.848.848,0,0,1,.254.614.867.867,0,0,1-.254.622.839.839,0,0,1-.289.193A.867.867,0,0,1,282.914,52.893Z" transform="translate(-255.18 -50.452)"/><path class="a" d="M159.709,156.077v-2.629H156.2v2.629H152.7v-2.629h-2.629v-3.505H152.7V145.56h-2.629v-3.505H152.7V138.55h-2.629v-3.505H152.7v-2.629H156.2v2.629h3.505v-2.629h3.505v2.7A5.267,5.267,0,0,1,167.6,140.3a5.211,5.211,0,0,1-1.08,3.163,5.689,5.689,0,0,1-3.3,9.966v2.646Zm3.067-6.135a2.191,2.191,0,0,0,0-4.382H156.2v4.382Zm-.438-7.887a1.753,1.753,0,1,0,0-3.505H156.2v3.505Z" transform="translate(-136.574 -120.851)"/></g></svg>