<svg xmlns="http://www.w3.org/2000/svg" width="32" height="51" viewBox="0 0 32 51"><defs><style>.a{fill:#708299;}.b{fill:#68788e;}.c{fill:#fff;}.d{fill:#3c3c47;}.e{fill:#31313b;}</style></defs><path class="a" d="M35.244,327.871l-14.154-6.91L35.231,339.99l2.124-2.859V326.837Zm0,0" transform="translate(-18.989 -288.99)"/><path class="a" d="M16,0,0,29.143H32Zm0,0"/><path class="b" d="M179.3,29.186,163.055,0V29.186Zm0,0" transform="translate(-147.297)"/><path class="c" d="M113.727,162.5h3.188v3.188h-3.188Zm0,0" transform="translate(-102.585 -146.31)"/><path class="d" d="M16.256,212.847l-.064-.03L.016,220.785H.03l16.176,7.969.064-.03,2.11-1.033v-13.8Zm0,0" transform="translate(-0.014 -191.618)"/><path class="c" d="M113.727,101.969h3.188v3.188h-3.188Zm0,0" transform="translate(-102.585 -91.812)"/><path class="b" d="M163.068,327.755l-.013,12.119,14.151-19.042Zm0,0" transform="translate(-147.297 -288.874)"/><path class="e" d="M178.69,220.785l-16.212-7.938-.064-.03.014,15.937.064-.03,16.212-7.938Zm0,0" transform="translate(-146.72 -191.618)"/></svg>