<svg xmlns="http://www.w3.org/2000/svg" width="25.152" height="28.882" viewBox="0 0 25.152 28.882"><defs><style>.a{fill:#ffd15c;}.b{fill:#fff;}.c{fill:#344a5e;}.d{fill:#415a6b;}</style></defs><path class="a" d="M120.375,94.372a6.775,6.775,0,0,1,2.046-3.129,8.22,8.22,0,0,0,2.948-6.318,8.305,8.305,0,1,0-13.659,6.318,6.456,6.456,0,0,1,2.106,3.129Z" transform="translate(-104.49 -72.289)"/><path class="b" d="M201.479,226.522h.542l-2.407-8.966h.18a1.188,1.188,0,0,0,.842-.361.582.582,0,0,1,.842,0,1.028,1.028,0,0,0,1.564,0,.546.546,0,0,1,.421-.181.65.65,0,0,1,.421.181,1.092,1.092,0,0,0,.842.361h.181l-2.347,8.966h.542l2.467-9.387c0-.12,0-.241-.12-.3a.264.264,0,0,0-.3.06.52.52,0,0,1-.361.181.8.8,0,0,1-.481-.181,1.028,1.028,0,0,0-1.564,0,.582.582,0,0,1-.842,0,.97.97,0,0,0-.782-.361h0a.97.97,0,0,0-.782.361.683.683,0,0,1-.481.181.429.429,0,0,1-.361-.181.265.265,0,0,0-.3-.06.22.22,0,0,0-.12.3Z" transform="translate(-189.685 -204.319)"/><g transform="translate(9.327 22.023)"><path class="c" d="M222.933,489.6a2.009,2.009,0,0,0,3.731,0Z" transform="translate(-221.549 -484.004)"/><path class="c" d="M203.876,396.056h-4.393a1.079,1.079,0,0,1-1.083-1.083V390.4h6.559v4.573A1.079,1.079,0,0,1,203.876,396.056Z" transform="translate(-198.4 -390.4)"/></g><g transform="translate(8.665 22.986)"><path class="d" d="M193.827,408.791h-6.5a.668.668,0,0,1-.662-.662h0a.668.668,0,0,1,.662-.662h6.5a.668.668,0,0,1,.662.662h0A.668.668,0,0,1,193.827,408.791Z" transform="translate(-186.667 -407.467)"/><path class="d" d="M193.827,446.125h-6.5a.668.668,0,0,1-.662-.662h0a.668.668,0,0,1,.662-.662h6.5a.668.668,0,0,1,.662.662h0A.668.668,0,0,1,193.827,446.125Z" transform="translate(-186.667 -442.695)"/></g><path class="a" d="M245.935,0a.6.6,0,0,0-.6.6V2.648a.6.6,0,0,0,.6.6.569.569,0,0,0,.6-.6V.6A.6.6,0,0,0,245.935,0Z" transform="translate(-233.359)"/><path class="a" d="M95.957,62.047a.6.6,0,1,0-.842.842l1.444,1.444a.6.6,0,0,0,.842-.842Z" transform="translate(-91.444 -58.377)"/><path class="a" d="M35.714,212.267H33.668a.6.6,0,0,0-.6.6h0a.6.6,0,0,0,.6.6h2.046a.6.6,0,0,0,.6-.6h0A.647.647,0,0,0,35.714,212.267Z" transform="translate(-33.066 -200.293)"/><path class="a" d="M96.557,337.248l-1.444,1.444a.6.6,0,0,0,.842.842L97.4,338.09a.6.6,0,0,0-.842-.842Z" transform="translate(-91.443 -318.053)"/><path class="a" d="M371.156,337.247a.6.6,0,0,0-.842.842l1.444,1.444a.6.6,0,0,0,.842-.842Z" transform="translate(-351.119 -318.053)"/><path class="a" d="M423.981,212.267h-2.046a.6.6,0,0,0-.6.6h0a.6.6,0,0,0,.6.6h2.046a.6.6,0,0,0,.6-.6h0A.6.6,0,0,0,423.981,212.267Z" transform="translate(-399.431 -200.293)"/><path class="a" d="M371.757,62.048l-1.444,1.444a.6.6,0,0,0,.842.842L372.6,62.89a.6.6,0,1,0-.842-.842Z" transform="translate(-351.119 -58.377)"/></svg>