<svg xmlns="http://www.w3.org/2000/svg" width="79.2" height="108" viewBox="0 0 79.2 108"><defs><style>.a{fill:#e3e3e3;}</style></defs><g transform="translate(-7.492)"><g transform="translate(7.492)"><path class="a" d="M15.629,102.57H8.848a1.562,1.562,0,0,1-1.356-1.71V1.71A1.563,1.563,0,0,1,8.848,0h6.781a1.563,1.563,0,0,1,1.356,1.71V100.86A1.562,1.562,0,0,1,15.629,102.57ZM10.2,99.15h4.069V3.419H10.2Z" transform="translate(-7.492)"/><g transform="translate(0 99.857)"><path class="a" d="M8.848,66.139a1.355,1.355,0,0,1-1.356-1.356v-5.43a1.356,1.356,0,1,1,2.712,0v5.43A1.355,1.355,0,0,1,8.848,66.139Z" transform="translate(-7.492 -57.996)"/></g><g transform="translate(0 105.288)"><path class="a" d="M85.076,64.712H9.108a1.377,1.377,0,1,1,0-2.712H85.076a1.377,1.377,0,1,1,0,2.712Z" transform="translate(-7.492 -62)"/></g><g transform="translate(6.781 99.857)"><path class="a" d="M83.266,60.708H14.137a1.382,1.382,0,1,1,0-2.712H83.266a1.382,1.382,0,1,1,0,2.712Z" transform="translate(-12.492 -57.996)"/></g><g transform="translate(6.781)"><path class="a" d="M83.266,2.712H14.137a1.52,1.52,0,0,1-1.645-1.356A1.52,1.52,0,0,1,14.137,0H83.266a1.52,1.52,0,0,1,1.645,1.356A1.52,1.52,0,0,1,83.266,2.712Z" transform="translate(-12.492)"/></g><g transform="translate(76.488)"><path class="a" d="M55.864,102.57a1.562,1.562,0,0,1-1.356-1.71V1.71a1.393,1.393,0,1,1,2.712,0V100.86A1.562,1.562,0,0,1,55.864,102.57Z" transform="translate(-54.508)"/></g><g transform="translate(76.488 99.857)"><path class="a" d="M55.864,66.139a1.355,1.355,0,0,1-1.356-1.356v-5.43a1.356,1.356,0,0,1,2.712,0v5.43A1.355,1.355,0,0,1,55.864,66.139Z" transform="translate(-54.508 -57.996)"/></g><g transform="translate(72.4 100.089)"><path class="a" d="M52.85,66.078a1.355,1.355,0,0,1-1.356-1.356v-5.2a1.356,1.356,0,0,1,2.712,0v5.2A1.355,1.355,0,0,1,52.85,66.078Z" transform="translate(-51.494 -58.167)"/></g><g transform="translate(29.15 79.864)"><path class="a" d="M46.879,49.741h-19a1.356,1.356,0,0,1,0-2.712h19a1.356,1.356,0,0,1,0,2.712Z" transform="translate(-26.525 -47.029)"/></g><g transform="translate(24.038 74.773)"><path class="a" d="M58.867,46.743H20.877a1.356,1.356,0,0,1,0-2.712h37.99a1.356,1.356,0,1,1,0,2.712Z" transform="translate(-19.521 -44.031)"/></g><g transform="translate(23.023 69.653)"><path class="a" d="M58.871,43.728H20.866a1.356,1.356,0,1,1,0-2.712H58.871a1.356,1.356,0,0,1,0,2.712Z" transform="translate(-19.51 -41.016)"/></g><g transform="translate(35.049 90.731)"><path class="a" d="M30.877,54.716A1.356,1.356,0,0,1,30.862,52h.015a1.356,1.356,0,1,1,0,2.712Z" transform="translate(-29.514 -52.004)"/><g transform="translate(5.425)"><path class="a" d="M34.877,54.716A1.356,1.356,0,0,1,34.862,52h.015a1.356,1.356,0,0,1,0,2.712Z" transform="translate(-33.514 -52.004)"/></g><g transform="translate(10.85)"><path class="a" d="M38.877,54.716A1.356,1.356,0,0,1,38.862,52h.015a1.356,1.356,0,0,1,0,2.712Z" transform="translate(-37.514 -52.004)"/></g></g></g><g transform="translate(29.138 8.155)"><path class="a" d="M40.194,49.412a21.7,21.7,0,1,1,21.7-21.7A21.725,21.725,0,0,1,40.194,49.412Zm0-40.686A18.987,18.987,0,1,0,59.181,27.712,19.008,19.008,0,0,0,40.194,8.725Z" transform="translate(-18.495 -6.013)"/><g transform="translate(4.069 4.069)"><path class="a" d="M39.126,44.274A17.631,17.631,0,1,1,56.756,26.644,17.651,17.651,0,0,1,39.126,44.274Zm0-32.549A14.918,14.918,0,1,0,54.044,26.644,14.936,14.936,0,0,0,39.126,11.725Z" transform="translate(-21.495 -9.013)"/></g><g transform="translate(16.275 16.275)"><path class="a" d="M35.92,28.863a5.425,5.425,0,1,1,5.425-5.425A5.43,5.43,0,0,1,35.92,28.863Zm0-8.137a2.712,2.712,0,1,0,2.712,2.712A2.715,2.715,0,0,0,35.92,20.725Z" transform="translate(-30.495 -18.013)"/></g><g transform="translate(6.251 12.2)"><path class="a" d="M52.645,17.721H24.46a1.356,1.356,0,0,1,0-2.712H52.644a1.356,1.356,0,0,1,0,2.712Z" transform="translate(-23.104 -15.009)"/></g><g transform="translate(24.42 18.037)"><path class="a" d="M37.859,40.09h-.035A1.358,1.358,0,0,1,36.5,38.7,21.813,21.813,0,0,1,49.339,19.43a1.356,1.356,0,1,1,1.107,2.476A19.086,19.086,0,0,0,39.214,38.769a1.357,1.357,0,0,1-1.355,1.321Z" transform="translate(-36.501 -19.313)"/></g><g transform="translate(4.23 18.034)"><path class="a" d="M35.009,40.091a1.358,1.358,0,0,1-1.356-1.322A19.1,19.1,0,0,0,22.417,21.906a1.356,1.356,0,1,1,1.107-2.476A21.824,21.824,0,0,1,36.366,38.7a1.357,1.357,0,0,1-1.322,1.39h-.034Z" transform="translate(-21.614 -19.31)"/></g></g></g></svg>