<svg xmlns="http://www.w3.org/2000/svg" width="19.369" height="19.344" viewBox="0 0 19.369 19.344"><defs><style>.a{fill:#08a522;}</style></defs><g transform="matrix(-0.017, 1, -1, -0.017, 19.452, 0.225)"><path class="a" d="M5.4,0A8.517,8.517,0,0,0,.618,1.476h0l1.171.968s.782-.781,3.61-.781a7.669,7.669,0,0,1,7.4,7.9,7.669,7.669,0,0,1-7.4,7.9c-2.828,0-3.38-.945-3.38-.945l-1.4,1.132h0A8.516,8.516,0,0,0,5.4,19.122c4.938,0,8.955-4.289,8.955-9.561S10.336,0,5.4,0Z" transform="translate(4.768)"/><path class="a" d="M14.579,3.916V2.544H2.627L4.2.97,3.23,0,0,3.23l3.23,3.23.97-.97L2.627,3.916Z" transform="translate(0 6.43)"/></g></svg>