<svg xmlns="http://www.w3.org/2000/svg" width="100" height="100" viewBox="0 0 100 100"><defs><style>.a{fill:#e1e6e8;}.b{fill:#183651;}.c{fill:#4ebd9e;}.d{fill:#fff;}.e{fill:#fcbd5e;}</style></defs><path class="a" d="M52.711,101.482a49.56,49.56,0,1,1,49.56-49.56A49.616,49.616,0,0,1,52.711,101.482Z" transform="translate(-2.711 -2.033)"/><path class="b" d="M7.165,7.707,5.514,6.386,10.578,0l4.954,6.386L13.881,7.707l-3.3-4.184Z" transform="translate(-4.743)"/><rect class="b" width="2.202" height="33.91" transform="translate(4.734 1.762)"/><path class="b" d="M439.76,464.569l-4.954-6.386,1.652-1.321,3.3,4.184,3.413-4.184,1.651,1.321Z" transform="translate(-345.595 -364.569)"/><rect class="b" width="2.202" height="33.91" transform="translate(93.064 64.329)"/><path class="b" d="M458.183,15.533l-1.321-1.652,4.184-3.3-4.184-3.413,1.321-1.651,6.386,5.064Z" transform="translate(-364.569 -4.743)"/><rect class="b" width="33.91" height="2.202" transform="translate(64.329 4.734)"/><path class="b" d="M6.386,444.147,0,439.082l6.386-5.064,1.321,1.762-4.184,3.3L7.707,442.5Z" transform="translate(0 -344.918)"/><rect class="b" width="33.91" height="2.202" transform="translate(1.762 93.064)"/><circle class="c" cx="44.165" cy="44.165" r="44.165" transform="translate(5.835 5.725)"/><path class="b" d="M79.137,123.616A45.266,45.266,0,1,1,124.4,78.35,45.316,45.316,0,0,1,79.137,123.616Zm0-87.482A42.136,42.136,0,1,0,121.192,78.35,42.131,42.131,0,0,0,79.137,36.134Z" transform="translate(-29.137 -28.46)"/><g transform="translate(10.129 9.909)"><path class="d" d="M112.339,150.634a39.871,39.871,0,1,1,39.871-39.871A39.911,39.911,0,0,1,112.339,150.634Z" transform="translate(-72.468 -70.892)"/><path class="d" d="M203.825,134.6l-8.477-4.954v-9.688L203.825,115l8.477,4.954v9.688Z" transform="translate(-163.954 -108.838)"/></g><path class="b" d="M197.05,129.265a.992.992,0,0,1-.55-.11l-8.477-4.844a1.156,1.156,0,0,1-.55-.991v-9.8a1.156,1.156,0,0,1,.55-.991l8.477-4.844a1,1,0,0,1,1.1,0l8.477,4.844a1.156,1.156,0,0,1,.55.991v9.8a1.156,1.156,0,0,1-.55.991l-8.477,4.734C197.38,129.155,197.27,129.265,197.05,129.265Zm-7.376-6.606,7.376,4.294,7.376-4.294v-8.477l-7.376-4.294-7.376,4.294Z" transform="translate(-147.05 -83.914)"/><path class="e" d="M222.917,154.548v-5.285l4.624-2.752,4.624,2.752v5.285l-4.624,2.753Z" transform="translate(-177.541 -116.451)"/><path class="d" d="M264.477,239.363,256,234.519v-9.8l8.477-4.954,8.478,4.954v9.8Z" transform="translate(-201.585 -172.24)"/><path class="b" d="M257.7,233.35a.992.992,0,0,1-.55-.11l-8.477-4.954a1.156,1.156,0,0,1-.55-.991v-9.8a1.156,1.156,0,0,1,.55-.991l8.477-4.844a1,1,0,0,1,1.1,0l8.477,4.844a1.156,1.156,0,0,1,.55.991v9.8a1.156,1.156,0,0,1-.55.991l-8.477,4.844A.606.606,0,0,1,257.7,233.35Zm-7.376-6.606,7.376,4.294,7.376-4.294v-8.477l-7.376-4.294-7.376,4.294Z" transform="translate(-194.625 -165.024)"/><path class="e" d="M283.569,260.1V254.7l4.624-2.642,4.624,2.642V260.1l-4.624,2.642Z" transform="translate(-225.847 -200.375)"/><path class="d" d="M143.173,239.363l-8.477-4.844v-9.8l8.477-4.954,8.477,4.954v9.8Z" transform="translate(-106.065 -172.24)"/><path class="b" d="M136.4,234.028a.992.992,0,0,1-.55-.11l-8.477-4.844a1.156,1.156,0,0,1-.55-.991v-9.8a1.156,1.156,0,0,1,.55-.991l8.477-4.844a1,1,0,0,1,1.1,0l8.477,4.844a1.156,1.156,0,0,1,.55.991v9.8a1.156,1.156,0,0,1-.55.991l-8.477,4.844A.993.993,0,0,1,136.4,234.028Zm-7.377-6.606,7.376,4.294,7.376-4.294v-8.477l-7.376-4.294-7.376,4.294Z" transform="translate(-99.476 -165.676)"/><path class="e" d="M162.265,260.1V254.7l4.624-2.642,4.624,2.642V260.1l-4.624,2.642Z" transform="translate(-129.235 -200.375)"/><g transform="translate(33.358 38.733)"><rect class="b" width="2.202" height="2.202" transform="matrix(-0.508, 0.861, -0.861, -0.508, 3.015, 1.119)"/><rect class="b" width="2.202" height="2.202" transform="translate(17.057 25.983) rotate(90.55)"/><rect class="b" width="2.202" height="2.202" transform="matrix(-0.871, 0.492, -0.492, -0.871, 32.408, 2.219)"/></g></svg>