<svg xmlns="http://www.w3.org/2000/svg" width="79.2" height="109.371" viewBox="0 0 79.2 109.371"><defs><style>.a{fill:#e3e3e3;}</style></defs><g transform="translate(-64)"><g transform="translate(64)"><path class="a" d="M133.771,0H73.429A9.439,9.439,0,0,0,64,9.429V99.943a9.439,9.439,0,0,0,9.429,9.429h60.343a9.439,9.439,0,0,0,9.429-9.429V9.429A9.439,9.439,0,0,0,133.771,0Zm5.657,99.943a5.664,5.664,0,0,1-5.657,5.657H73.429a5.664,5.664,0,0,1-5.657-5.657V9.429a5.664,5.664,0,0,1,5.657-5.657h60.343a5.664,5.664,0,0,1,5.657,5.657Z" transform="translate(-64)"/></g><g transform="translate(81.497 92.369)"><g transform="translate(0)"><path class="a" d="M170.506,384H129.7a1.7,1.7,0,1,0,0,3.4h40.806a1.7,1.7,0,1,0,0-3.4Z" transform="translate(-128 -384)"/></g></g><g transform="translate(81.497 83.263)"><g transform="translate(0)"><path class="a" d="M170.506,352H129.7a1.7,1.7,0,0,0,0,3.4h40.806a1.7,1.7,0,1,0,0-3.4Z" transform="translate(-128 -352)"/></g></g><g transform="translate(81.497 13.602)"><g transform="translate(0)"><path class="a" d="M150.1,64a22.1,22.1,0,1,0,22.1,22.1A22.129,22.129,0,0,0,150.1,64Zm0,3.4c1.279,0,3.448,3.611,4.5,10.372-1.483-.111-2.989-.17-4.5-.17s-3.013.06-4.5.17C146.655,71.012,148.825,67.4,150.1,67.4Zm-5.164.741a31.706,31.706,0,0,0-2.809,9.991,31.707,31.707,0,0,0-9.991,2.809A18.762,18.762,0,0,1,144.94,68.142ZM131.4,86.1c0-1.279,3.611-3.448,10.371-4.5-.11,1.483-.17,2.989-.17,4.5s.06,3.013.17,4.5C135.012,89.551,131.4,87.382,131.4,86.1Zm.741,5.164a31.706,31.706,0,0,0,9.991,2.809,31.705,31.705,0,0,0,2.809,9.991A18.762,18.762,0,0,1,132.142,91.267ZM150.1,104.806c-1.279,0-3.448-3.611-4.5-10.372,1.483.111,2.989.17,4.5.17s3.013-.059,4.5-.17C153.551,101.195,151.382,104.806,150.1,104.806ZM155,91c-1.518.126-3.144.2-4.9.2s-3.378-.078-4.9-.2c-.126-1.518-.2-3.144-.2-4.9s.078-3.378.2-4.9c1.518-.126,3.144-.2,4.9-.2s3.378.078,4.9.2c.126,1.518.2,3.144.2,4.9S155.126,89.482,155,91Zm13.065-10.06a31.707,31.707,0,0,0-9.991-2.809,31.705,31.705,0,0,0-2.809-9.991A18.762,18.762,0,0,1,168.065,80.94Zm-12.8,23.125a31.705,31.705,0,0,0,2.809-9.991,31.706,31.706,0,0,0,9.991-2.809A18.762,18.762,0,0,1,155.267,104.065ZM158.434,90.6c.111-1.483.17-2.989.17-4.5s-.059-3.013-.17-4.5c6.76,1.047,10.372,3.217,10.372,4.5S165.195,89.551,158.434,90.6Z" transform="translate(-128 -64)"/></g></g></g></svg>