<svg xmlns="http://www.w3.org/2000/svg" width="99.789" height="99.789" viewBox="0 0 99.789 99.789"><defs><style>.a{fill:#e7eced;}.b{fill:#717171;}.c{fill:#e3e3e3;}</style></defs><path class="a" d="M26.035,47.58,41.257,57.728,53.1,78.024l5.074-10.148L86.923,83.1,119.058,8.68Zm0,0" transform="translate(-20.961 -6.988)"/><path class="a" d="M8.68,38.9l18.6,11.839L106.777,0Zm0,0" transform="translate(-6.988)"/><path class="b" d="M117.668,82.875,104.137,50.74,183.63,0,121.05,60.888Zm0,0" transform="translate(-83.841)"/><path class="c" d="M221.362,77.8,190.918,60.888,253.5,0Zm0,0" transform="translate(-153.708)"/><path class="c" d="M1.692,310.273a1.691,1.691,0,0,1-1.2-2.887l11.839-11.839a1.691,1.691,0,1,1,2.392,2.391L2.888,309.777A1.684,1.684,0,0,1,1.692,310.273Zm0,0" transform="translate(0 -237.546)"/><path class="b" d="M1.692,484.052a1.691,1.691,0,0,1-1.2-2.887l3.383-3.383a1.691,1.691,0,0,1,2.391,2.391l-3.383,3.383A1.685,1.685,0,0,1,1.692,484.052Zm0,0" transform="translate(0 -384.264)"/><path class="c" d="M45.082,412.715a1.691,1.691,0,0,1-1.2-2.887l10.148-10.148a1.691,1.691,0,0,1,2.391,2.391L46.278,412.221A1.688,1.688,0,0,1,45.082,412.715Zm0,0" transform="translate(-34.934 -321.384)"/><path class="b" d="M175.251,491.04a1.691,1.691,0,0,1-1.2-2.887l1.691-1.691a1.691,1.691,0,0,1,2.392,2.391l-1.692,1.691A1.684,1.684,0,0,1,175.251,491.04Zm0,0" transform="translate(-139.733 -391.252)"/><path class="c" d="M209.963,428.38a1.691,1.691,0,0,1-1.2-2.887l8.457-8.457a1.691,1.691,0,0,1,2.391,2.391l-8.457,8.457A1.687,1.687,0,0,1,209.963,428.38Zm0,0" transform="translate(-167.679 -335.357)"/></svg>