<svg xmlns="http://www.w3.org/2000/svg" width="100" height="100" viewBox="0 0 100 100"><defs><style>.a{fill:#e4eef0;}.b{fill:#adb9c3;}.c{fill:#082c56;}.d{fill:#e10d00;}.e{fill:#f80400;}.f{fill:#0055be;}.g{fill:#edbe00;}.h{fill:#3755c7;}.i{fill:#00ac3e;}.j{fill:#4d007e;}</style></defs><path class="a" d="M162.181,448.525h-45.8a5.442,5.442,0,0,1-5.446-5.44V435.2h56.694v7.885A5.442,5.442,0,0,1,162.181,448.525Z" transform="translate(-89.28 -350.191)"/><g transform="translate(28.347 90.006)"><path class="b" d="M233.526,464.132h-9.994a1.666,1.666,0,1,1,0-3.331h9.994a1.666,1.666,0,0,1,0,3.331Z" transform="translate(-206.876 -460.801)"/><path class="b" d="M324.062,464.132H317.4a1.666,1.666,0,0,1,0-3.331h6.662a1.666,1.666,0,1,1,0,3.331Z" transform="translate(-282.421 -460.801)"/><path class="b" d="M153.4,464.132h-6.662a1.666,1.666,0,1,1,0-3.331H153.4a1.666,1.666,0,1,1,0,3.331Z" transform="translate(-145.067 -460.801)"/></g><path class="a" d="M116.379,8.533h45.8a5.442,5.442,0,0,1,5.444,5.44v7.885H110.933V13.973A5.442,5.442,0,0,1,116.379,8.533Z" transform="translate(-89.28 -6.867)"/><path class="b" d="M223.123,37.465H206.467a1.666,1.666,0,0,1,0-3.331h16.656a1.666,1.666,0,0,1,0,3.331Z" transform="translate(-164.795 -27.471)"/><rect class="c" width="56.694" height="70.019" transform="translate(21.653 14.991)"/><path class="d" d="M153.812,359.861h-7.5a1.249,1.249,0,0,1-1.249-1.249v-7.5a1.249,1.249,0,0,1,1.249-1.249h7.5a1.249,1.249,0,0,1,1.249,1.249v7.5A1.249,1.249,0,0,1,153.812,359.861Z" transform="translate(-116.732 -281.529)"/><path class="e" d="M331.554,359.861h-6.246a1.159,1.159,0,0,1-1.041-1.249v-7.5a1.159,1.159,0,0,1,1.041-1.249h6.246a1.159,1.159,0,0,1,1.041,1.249v7.5A1.159,1.159,0,0,1,331.554,359.861Z" transform="translate(-260.93 -281.529)"/><path class="f" d="M239.145,358.195h-7.5a1.16,1.16,0,0,1-1.249-1.041v-6.246a1.16,1.16,0,0,1,1.249-1.041h7.5a1.16,1.16,0,0,1,1.249,1.041v6.246A1.16,1.16,0,0,1,239.145,358.195Z" transform="translate(-185.397 -281.53)"/><path class="g" d="M153.812,274.527h-7.5a1.249,1.249,0,0,1-1.249-1.249v-7.5a1.249,1.249,0,0,1,1.249-1.249h7.5a1.249,1.249,0,0,1,1.249,1.249v7.5A1.249,1.249,0,0,1,153.812,274.527Z" transform="translate(-116.732 -212.863)"/><path class="h" d="M324.478,274.527h-7.5a1.249,1.249,0,0,1-1.249-1.249v-7.5a1.249,1.249,0,0,1,1.249-1.249h7.5a1.249,1.249,0,0,1,1.249,1.249v7.5A1.248,1.248,0,0,1,324.478,274.527Z" transform="translate(-254.062 -212.863)"/><path class="i" d="M239.145,274.527h-7.5a1.249,1.249,0,0,1-1.249-1.249v-7.5a1.249,1.249,0,0,1,1.249-1.249h7.5a1.249,1.249,0,0,1,1.249,1.249v7.5A1.248,1.248,0,0,1,239.145,274.527Z" transform="translate(-185.397 -212.863)"/><path class="j" d="M155.312,443.323h-45.8a7.117,7.117,0,0,1-7.113-7.105v-7.885a1.666,1.666,0,0,1,1.667-1.666h56.69a1.665,1.665,0,0,1,1.667,1.666v7.885A7.115,7.115,0,0,1,155.312,443.323ZM105.735,430v6.219a3.782,3.782,0,0,0,3.778,3.774h45.8a3.782,3.782,0,0,0,3.778-3.774V430Z" transform="translate(-82.412 -343.323)"/><path class="j" d="M233.526,464.132h-9.994a1.666,1.666,0,1,1,0-3.331h9.994a1.666,1.666,0,0,1,0,3.331Z" transform="translate(-178.529 -370.795)"/><path class="j" d="M324.062,464.132H317.4a1.666,1.666,0,0,1,0-3.331h6.662a1.666,1.666,0,1,1,0,3.331Z" transform="translate(-254.063 -370.795)"/><path class="j" d="M153.4,464.132h-6.662a1.666,1.666,0,1,1,0-3.331H153.4a1.666,1.666,0,1,1,0,3.331Z" transform="translate(-116.732 -370.795)"/><path class="j" d="M160.758,16.656h-56.69a1.667,1.667,0,0,1-1.667-1.666V7.106A7.118,7.118,0,0,1,109.513,0h45.8a7.117,7.117,0,0,1,7.111,7.106v7.885A1.666,1.666,0,0,1,160.758,16.656Zm-55.023-3.331H159.09V7.106a3.78,3.78,0,0,0-3.777-3.774h-45.8a3.782,3.782,0,0,0-3.778,3.774v6.22Z" transform="translate(-82.412)"/><path class="j" d="M223.123,37.465H206.467a1.666,1.666,0,0,1,0-3.331h16.656a1.666,1.666,0,0,1,0,3.331Z" transform="translate(-164.795 -27.471)"/><path class="j" d="M160.758,141.617h-56.69a1.667,1.667,0,0,1-1.667-1.667V69.934a1.668,1.668,0,0,1,1.667-1.667h56.69a1.667,1.667,0,0,1,1.667,1.667V139.95A1.665,1.665,0,0,1,160.758,141.617Zm-55.023-3.334H159.09V71.6H105.735Z" transform="translate(-82.412 -54.942)"/><path class="j" d="M436.806,214.415a1.665,1.665,0,0,1-1.6-2.132,40.252,40.252,0,0,0,.012-22.424,1.665,1.665,0,1,1,3.2-.929,43.575,43.575,0,0,1-.012,24.288A1.665,1.665,0,0,1,436.806,214.415Z" transform="translate(-350.143 -151.053)"/><path class="j" d="M54.59,214.411a1.664,1.664,0,0,1-1.6-1.2,43.575,43.575,0,0,1-.012-24.288,1.666,1.666,0,0,1,3.2.931,40.23,40.23,0,0,0,.01,22.424,1.664,1.664,0,0,1-1.133,2.065A1.621,1.621,0,0,1,54.59,214.411Z" transform="translate(-41.255 -151.049)"/><path class="j" d="M5,193.568a1.669,1.669,0,0,1-1.522-.986C1.234,187.563,0,180.816,0,173.58s1.234-13.983,3.476-19a1.666,1.666,0,1,1,3.041,1.359c-2.055,4.6-3.186,10.865-3.186,17.642s1.131,13.042,3.186,17.642a1.666,1.666,0,0,1-.841,2.2A1.642,1.642,0,0,1,5,193.568Z" transform="translate(0 -123.58)"/><path class="j" d="M479.527,193.571a1.627,1.627,0,0,1-.676-.145,1.664,1.664,0,0,1-.843-2.2c2.054-4.6,3.186-10.87,3.186-17.644s-1.133-13.04-3.186-17.642a1.666,1.666,0,0,1,3.041-1.359c2.242,5.02,3.476,11.769,3.476,19s-1.234,13.981-3.476,19A1.666,1.666,0,0,1,479.527,193.571Z" transform="translate(-384.526 -123.584)"/><path class="j" d="M148.193,354.659H138.2a1.665,1.665,0,0,1-1.666-1.666V343a1.665,1.665,0,0,1,1.666-1.666h9.994A1.665,1.665,0,0,1,149.859,343v9.994A1.665,1.665,0,0,1,148.193,354.659Zm-8.328-3.331h6.662v-6.662h-6.662Z" transform="translate(-109.865 -274.661)"/><path class="j" d="M318.859,354.659h-9.994a1.664,1.664,0,0,1-1.666-1.666V343a1.664,1.664,0,0,1,1.666-1.666h9.994A1.664,1.664,0,0,1,320.525,343v9.994A1.664,1.664,0,0,1,318.859,354.659Zm-8.328-3.331h6.662v-6.662h-6.662Z" transform="translate(-247.194 -274.661)"/><path class="j" d="M233.526,354.659h-9.994a1.665,1.665,0,0,1-1.666-1.666V343a1.665,1.665,0,0,1,1.666-1.666h9.994A1.664,1.664,0,0,1,235.192,343v9.994A1.664,1.664,0,0,1,233.526,354.659Zm-8.328-3.331h6.662v-6.662H225.2Z" transform="translate(-178.529 -274.661)"/><path class="j" d="M148.193,269.326H138.2a1.665,1.665,0,0,1-1.666-1.666v-9.994A1.665,1.665,0,0,1,138.2,256h9.994a1.665,1.665,0,0,1,1.666,1.666v9.994A1.665,1.665,0,0,1,148.193,269.326Zm-8.328-3.331h6.662v-6.662h-6.662Z" transform="translate(-109.865 -205.996)"/><path class="j" d="M318.859,269.326h-9.994a1.664,1.664,0,0,1-1.666-1.666v-9.994A1.664,1.664,0,0,1,308.866,256h9.994a1.664,1.664,0,0,1,1.666,1.666v9.994A1.664,1.664,0,0,1,318.859,269.326Zm-8.328-3.331h6.662v-6.662h-6.662Z" transform="translate(-247.194 -205.996)"/><path class="j" d="M233.526,269.326h-9.994a1.665,1.665,0,0,1-1.666-1.666v-9.994A1.665,1.665,0,0,1,223.533,256h9.994a1.664,1.664,0,0,1,1.666,1.666v9.994A1.664,1.664,0,0,1,233.526,269.326Zm-8.328-3.331h6.662v-6.662H225.2Z" transform="translate(-178.529 -205.996)"/><path class="j" d="M221.661,119.056a8.328,8.328,0,1,1,8.328-8.328A8.338,8.338,0,0,1,221.661,119.056Zm0-13.325a5,5,0,1,0,5,5A5,5,0,0,0,221.661,105.731Z" transform="translate(-171.661 -82.397)"/><path class="j" d="M243.52,208.132H223.533a1.666,1.666,0,0,1,0-3.331H243.52a1.666,1.666,0,0,1,0,3.331Z" transform="translate(-178.525 -164.8)"/><path class="j" d="M175.614,208.132h-3.281a1.666,1.666,0,1,1,0-3.331h3.281a1.666,1.666,0,1,1,0,3.331Z" transform="translate(-137.332 -164.8)"/></svg>