<svg xmlns="http://www.w3.org/2000/svg" width="50" height="50" viewBox="0 0 50 50"><defs><style>.a{fill:#f7c600;}.b{fill:#ffd630;}.c{fill:#fff;}.d{fill:#f5c918;}.e{fill:#00cc96;}</style></defs><g transform="translate(-98.05 -72.507)"><rect class="a" width="50" height="34.411" transform="translate(98.05 88.07)"/><path class="b" d="M98.05,88.07h50l-25-15.563Z" transform="translate(0 0)"/><path class="c" d="M125.138,133.644H160.81a3.392,3.392,0,0,1,3.359,3.409v34.561h-42.39V137.053A3.392,3.392,0,0,1,125.138,133.644Z" transform="translate(-19.924 -49.133)"/><path class="b" d="M98.05,169.568l24.758,16.118L98.05,201.8V169.568Z" transform="translate(0 -79.297)"/><path class="d" d="M98.05,286.043h50l-25-16.118Z" transform="translate(0 -163.562)"/><path class="b" d="M284.136,169.568l-24.758,16.118L284.136,201.8V169.568Z" transform="translate(-136.086 -79.297)"/><path class="e" d="M178.4,144.191c7.965,0,14.431,2.959,14.431,6.632,0,2.906-4.112,5.39-9.828,6.289-.491,1.744-1.862,3.461-4.474,4.941a4.9,4.9,0,0,0,.828-4.624c-.31,0-.647.026-.957.026-7.965,0-14.431-2.959-14.431-6.632C163.965,147.177,170.431,144.191,178.4,144.191Z" transform="translate(-55.346 -59.345)"/><path class="c" d="M199.953,168.411a2.262,2.262,0,0,1-.264,1.083,1.77,1.77,0,0,1-.819.687,3.28,3.28,0,0,1-1.321.238,2.649,2.649,0,0,1-1.268-.264,1.687,1.687,0,0,1-.766-.634,1.443,1.443,0,0,1-.238-.766.6.6,0,0,1,.159-.423.475.475,0,0,1,.4-.185.5.5,0,0,1,.343.132.85.85,0,0,1,.211.343,1.674,1.674,0,0,0,.5.608,1.408,1.408,0,0,0,.793.211,1.04,1.04,0,0,0,.661-.211.56.56,0,0,0,.264-.476.621.621,0,0,0-.264-.581,2.758,2.758,0,0,0-.9-.343,6.425,6.425,0,0,1-1.163-.423,1.925,1.925,0,0,1-.713-.581,1.369,1.369,0,0,1-.264-.872,1.663,1.663,0,0,1,.238-.872,1.734,1.734,0,0,1,.713-.661,2.605,2.605,0,0,1,1.163-.238,3.446,3.446,0,0,1,.951.132,1.8,1.8,0,0,1,.713.343,1.2,1.2,0,0,1,.423.476.934.934,0,0,1,.159.5.558.558,0,0,1-.159.423.621.621,0,0,1-.449.159.632.632,0,0,1-.37-.132,2.837,2.837,0,0,1-.343-.4,1.635,1.635,0,0,0-.37-.37,1.182,1.182,0,0,0-.581-.132.926.926,0,0,0-.608.185.552.552,0,0,0-.238.449.476.476,0,0,0,.185.4,2.031,2.031,0,0,0,.476.264,5.9,5.9,0,0,0,.846.238,3.782,3.782,0,0,1,1.031.423,1.612,1.612,0,0,1,.608.581,1.444,1.444,0,0,1,.211.766Zm5.707-1v2.061a1.23,1.23,0,0,1-.185.74.63.63,0,0,1-.528.238.614.614,0,0,1-.5-.238,1.131,1.131,0,0,1-.185-.74v-2.457a8.249,8.249,0,0,0-.026-.9,1.049,1.049,0,0,0-.185-.529.6.6,0,0,0-.5-.211.9.9,0,0,0-.9.528,4.287,4.287,0,0,0-.211,1.48v2.087a1.23,1.23,0,0,1-.185.74.649.649,0,0,1-1,0,1.123,1.123,0,0,1-.211-.74v-4.413a.985.985,0,0,1,.185-.661.533.533,0,0,1,.476-.238.661.661,0,0,1,.476.211.811.811,0,0,1,.185.581v.159a2.739,2.739,0,0,1,.766-.713,1.758,1.758,0,0,1,.9-.238,1.69,1.69,0,0,1,.9.238,1.935,1.935,0,0,1,.608.687,2.67,2.67,0,0,1,.74-.713,1.664,1.664,0,0,1,.872-.238,1.983,1.983,0,0,1,.978.238,1.477,1.477,0,0,1,.608.713,3.907,3.907,0,0,1,.185,1.321v3.012a1.23,1.23,0,0,1-.185.74.63.63,0,0,1-.528.238.614.614,0,0,1-.5-.238,1.123,1.123,0,0,1-.211-.74v-2.589a6.469,6.469,0,0,0-.026-.793.97.97,0,0,0-.211-.5.636.636,0,0,0-.5-.211.859.859,0,0,0-.528.185,1.291,1.291,0,0,0-.37.476,4.089,4.089,0,0,0-.159,1.374Zm8.957,1a2.262,2.262,0,0,1-.264,1.083,1.77,1.77,0,0,1-.819.687,3.28,3.28,0,0,1-1.321.238,2.649,2.649,0,0,1-1.268-.264,1.687,1.687,0,0,1-.766-.634,1.443,1.443,0,0,1-.238-.766.6.6,0,0,1,.159-.423.475.475,0,0,1,.4-.185.5.5,0,0,1,.343.132.85.85,0,0,1,.211.343,1.674,1.674,0,0,0,.5.608,1.408,1.408,0,0,0,.793.211,1.04,1.04,0,0,0,.661-.211.56.56,0,0,0,.264-.476.621.621,0,0,0-.264-.581,2.757,2.757,0,0,0-.9-.343,6.424,6.424,0,0,1-1.163-.423,1.925,1.925,0,0,1-.713-.581,1.369,1.369,0,0,1-.264-.872,1.663,1.663,0,0,1,.238-.872,1.734,1.734,0,0,1,.713-.661,2.605,2.605,0,0,1,1.163-.238,3.446,3.446,0,0,1,.951.132,1.8,1.8,0,0,1,.713.343,1.2,1.2,0,0,1,.423.476.934.934,0,0,1,.159.5.558.558,0,0,1-.159.423.622.622,0,0,1-.449.159.632.632,0,0,1-.37-.132,2.837,2.837,0,0,1-.343-.4,1.634,1.634,0,0,0-.37-.37,1.182,1.182,0,0,0-.581-.132.926.926,0,0,0-.608.185.552.552,0,0,0-.238.449.475.475,0,0,0,.185.4,2.03,2.03,0,0,0,.476.264,5.9,5.9,0,0,0,.845.238,3.783,3.783,0,0,1,1.031.423,1.612,1.612,0,0,1,.608.581,1.444,1.444,0,0,1,.211.766Z" transform="translate(-81.948 -76.153)"/></g></svg>