<svg xmlns="http://www.w3.org/2000/svg" width="100" height="100" viewBox="0 0 100 100"><defs><style>.a{fill:#fe6a16;}.b{fill:#f24500;}.c{fill:#bec3d2;}.d{fill:#afb4c8;}.e{fill:#fff;}.f{fill:#e9edf5;}.g{fill:#cdd2e1;}.h{fill:#dce1eb;}.i{fill:#ffd400;}.j{fill:#fdba12;}.k{fill:#555a66;}.l{fill:#414952;}.m{fill:#333940;}.n{fill:#23272b;}</style></defs><path class="a" d="M100,50A50,50,0,1,1,50,0,50,50,0,0,1,100,50Zm0,0"/><path class="b" d="M172.173,141.848c0-.63-.016-1.256-.042-1.879L154.913,122.75l-1.065,3.7-9.706-9.706L97.434,129.7l14.657,14.657-14.657,1.68,14.531,14.531-14.531,1.806L122.953,187.9c1.014.066,2.037.1,3.068.1A46.152,46.152,0,0,0,172.173,141.848Zm0,0" transform="translate(-72.173 -88)"/><path class="c" d="M110.457,152.688h42.014v35.22H110.457Zm0,0" transform="translate(-87.496 -121.45)"/><path class="d" d="M226,152.688h21.183v35.22H226Zm0,0" transform="translate(-180.848 -121.45)"/><path class="e" d="M97.434,116.742h46.709V129.7H97.434Zm0,0" transform="translate(-76.903 -93.654)"/><path class="f" d="M226,116.742h23.53V129.7H226Zm0,0" transform="translate(-180.697 -93.654)"/><path class="g" d="M97.434,297.984h46.709v12.961H97.434Zm0,0" transform="translate(-76.903 -239.053)"/><path class="c" d="M226,297.984h23.53v12.961H226Zm0,0" transform="translate(-180.697 -239.053)"/><path class="f" d="M97.434,207.363h46.709v12.961H97.434Zm0,0" transform="translate(-76.903 -166.354)"/><path class="h" d="M226,207.363h23.53v12.961H226Zm0,0" transform="translate(-180.697 -166.354)"/><path class="i" d="M335.308,161.891h-3.77V143.734a7.139,7.139,0,0,0-14.279,0v18.157h-3.77V143.734a10.91,10.91,0,0,1,21.82,0Zm0,0" transform="translate(-250.802 -105.964)"/><path class="j" d="M373.687,132.824l-.07,0v3.77h.07a7.148,7.148,0,0,1,7.139,7.139v18.157h3.77V143.734A10.923,10.923,0,0,0,373.687,132.824Zm0,0" transform="translate(-299.887 -105.964)"/><path class="k" d="M316.842,237.788H303.3a7.288,7.288,0,0,1-7.287-7.288v-9.775a7.288,7.288,0,0,1,7.287-7.288h13.547a7.288,7.288,0,0,1,7.288,7.288V230.5A7.288,7.288,0,0,1,316.842,237.788Zm0,0" transform="translate(-234.947 -170.601)"/><path class="l" d="M380.46,213.438h-6.843v24.351h6.843a7.288,7.288,0,0,0,7.288-7.288v-9.775A7.288,7.288,0,0,0,380.46,213.438Zm0,0" transform="translate(-298.565 -170.601)"/><path class="m" d="M360.96,248.611a3.677,3.677,0,1,0-6.659,2.15V257.2h5.964v-6.443A3.656,3.656,0,0,0,360.96,248.611Zm0,0" transform="translate(-284.082 -196.531)"/><path class="n" d="M373.687,244.934c-.023,0-.046,0-.07,0V257.2h3.052v-6.443a3.677,3.677,0,0,0-2.982-5.827Zm0,0" transform="translate(-300.408 -196.531)"/></svg>