<svg xmlns="http://www.w3.org/2000/svg" width="20" height="20" viewBox="0 0 20 20"><defs><style>.a{fill:#08a522;}</style></defs><path class="a" d="M31.247,14.232A.331.331,0,0,0,31,14l-2.033-.459-.459-2.033a.332.332,0,0,0-.558-.161l-2.339,2.339A9.462,9.462,0,1,0,28.824,16.9l2.34-2.34a.332.332,0,0,0,.084-.327Zm-1.726,7.556a8.8,8.8,0,1,1-4.394-7.618l-1.074,1.074a.329.329,0,0,0-.026.033,7.311,7.311,0,1,0,3.2,3.207.327.327,0,0,0,.035-.028l1.074-1.074a8.769,8.769,0,0,1,1.182,4.405ZM26.443,18.43a6.629,6.629,0,1,1-2.364-2.366l.349,1.548-.335.335a5.124,5.124,0,1,0,.469.469l.335-.335Zm-4.295,3.358a1.432,1.432,0,1,1-.682-1.214l-.98.98a.332.332,0,1,0,.469.469l.98-.98A1.416,1.416,0,0,1,22.148,21.788Zm-.2-1.692a2.1,2.1,0,1,0,.469.469l1.679-1.679a4.457,4.457,0,1,1-.469-.469Zm6.227-3.484-1.245,1.245-.187-.042-.007,0L25.07,17.44l-.419-1.855,3.343-3.343.373,1.651a.332.332,0,0,0,.251.251l1.651.373Z" transform="translate(-11.261 -11.25)"/></svg>