<svg xmlns="http://www.w3.org/2000/svg" width="20" height="20" viewBox="0 0 20 20"><defs><style>.a{fill:#08a522;}</style></defs><g transform="translate(0.266)"><path class="a" d="M83.471,8.544A4.272,4.272,0,1,0,79.2,4.272,4.272,4.272,0,0,0,83.471,8.544Zm0-7.736a3.464,3.464,0,1,1-3.464,3.464A3.464,3.464,0,0,1,83.471.808Zm0,0" transform="translate(-76.895)"/><path class="a" d="M19.5,281.047l-3.837-1.855a.472.472,0,0,0-.423,0l-3.512,1.746a7.919,7.919,0,0,0-4.465-1.322,7.775,7.775,0,0,0-5.333,2.033,6.85,6.85,0,0,0-2.195,5.089.427.427,0,0,0,.445.4l12.384-.02a5.726,5.726,0,0,0,2.181,1.512l.516.206a.448.448,0,0,0,.178.032.551.551,0,0,0,.178-.032l.583-.23a5.252,5.252,0,0,0,3.534-4.83v-2.377A.4.4,0,0,0,19.5,281.047ZM.637,286.333a6.07,6.07,0,0,1,1.932-4.119,6.832,6.832,0,0,1,4.7-1.786h.013a6.945,6.945,0,0,1,4,1.217v2.187a4.854,4.854,0,0,0,.694,2.486Zm18.206-2.551a4.443,4.443,0,0,1-3,4.086h0l-.4.158-.338-.133a4.449,4.449,0,0,1-2.933-4.066v-2.187L15.456,280l3.388,1.641Zm0,0" transform="translate(0 -268.876)"/><path class="a" d="M385.528,391.919a.4.4,0,1,0-.614.525l.917,1.071a.407.407,0,0,0,.307.142.4.4,0,0,0,.255-.089l2.134-1.734a.4.4,0,0,0-.513-.626l-1.827,1.487Zm0,0" transform="translate(-370.786 -377.498)"/></g></svg>