<svg xmlns="http://www.w3.org/2000/svg" width="28.999" height="29" viewBox="0 0 28.999 29"><defs><style>.a{fill:#f3f2f2;}.b{fill:#293688;}.c{fill:#f7981d;}</style></defs><g transform="translate(-0.01)"><circle class="a" cx="14.499" cy="14.499" r="14.499" transform="translate(0.01 0.001)"/><g transform="translate(4.827 10.625)"><path class="b" d="M175.483,181.925l1.109-6.551h1.8l-1.109,6.551Z" transform="translate(-169.564 -175.267)"/><path class="b" d="M226.632,173.922a4.665,4.665,0,0,0-1.61-.275c-1.775,0-3.026.889-3.036,2.162-.01.941.893,1.466,1.574,1.78.7.32.934.526.931.813,0,.439-.559.64-1.075.64a3.791,3.791,0,0,1-1.691-.344l-.231-.1-.252,1.467a5.713,5.713,0,0,0,2,.35c1.888,0,3.114-.878,3.128-2.238.007-.745-.472-1.312-1.508-1.78-.628-.3-1.013-.5-1.008-.812,0-.272.326-.563,1.029-.563a3.331,3.331,0,0,1,1.345.251l.161.076.244-1.42Z" transform="translate(-212.522 -173.647)"/><path class="b" d="M304.282,175.373a.893.893,0,0,0-.93.558l-2.662,5.994h1.9l.37-1h2.272l.211,1h1.691l-1.479-6.552h-1.374Zm-.816,4.237c.148-.377.715-1.831.715-1.831-.01.017.148-.379.238-.625l.122.565.416,1.892h-1.491Z" transform="translate(-287.109 -175.267)"/><path class="b" d="M81.383,179.864l-.158-.9a5.118,5.118,0,0,0-2.485-2.747l1.587,5.706h1.9l2.853-6.551h-1.9Z" transform="translate(-78.739 -175.267)"/></g><g transform="translate(1.643 10.73)"><path class="c" d="M46.823,175.373v.106a6.133,6.133,0,0,1,4.438,3.487l-.651-3.034a.772.772,0,0,0-.828-.559Z" transform="translate(-45.592 -175.373)"/><path class="c" d="M39.562,354.048a14.494,14.494,0,0,0,12.866-7.815H26.7A14.494,14.494,0,0,0,39.562,354.048Z" transform="translate(-26.696 -335.779)"/></g><path class="b" d="M41.3,0A14.5,14.5,0,0,0,28.548,7.593H54.053A14.5,14.5,0,0,0,41.3,0Z" transform="translate(-26.792)"/></g></svg>